<svg width="28" height="20" viewBox="0 0 28 20" fill="none" xmlns="http://www.w3.org/2000/svg">
<path d="M4.54848 7.48537C4.54848 6.102 4.87016 4.80401 5.43171 3.68597C2.3771 4.07288 0 7.06441 0 10.6979C0 13.0923 1.03192 15.2074 2.60995 16.4826V18.7695C2.60995 19.3321 3.14204 19.6784 3.55864 19.3872L5.89928 17.7482C5.96754 17.7509 6.03581 17.7525 6.10454 17.7525H16.2353C18.1733 17.7525 19.9005 16.7085 21.0185 15.0804H11.1206C7.49695 15.0804 4.54848 11.6733 4.54848 7.48483V7.48537Z" fill="white"/>
<path d="M22.2756 13.4985L22.4413 13.6145L24.7574 15.2363C24.7706 15.2181 24.7865 15.1841 24.7865 15.1273V12.8404V12.5539L25.0093 12.3738C26.4372 11.2199 27.3964 9.28063 27.3964 7.05578L22.2756 13.4985ZM22.2756 13.4985L22.0734 13.5065M22.2756 13.4985L22.0734 13.5065M22.0734 13.5065C22.0114 13.5089 21.9512 13.5103 21.8919 13.5103H11.7612C8.79951 13.5103 6.25662 10.7044 6.25662 7.05517C6.25662 3.40542 8.79948 0.6 11.7612 0.6H21.8914M22.0734 13.5065L21.8914 0.6M21.8914 0.6C24.8531 0.6 27.396 3.40536 27.3964 7.05571L21.8914 0.6Z" stroke="white" stroke-width="1.2"/>
<ellipse cx="12.0545" cy="6.61159" rx="1.1664" ry="1.1664" fill="white"/>
<ellipse cx="17.0785" cy="6.61159" rx="1.1664" ry="1.1664" fill="white"/>
<ellipse cx="22.1098" cy="6.61159" rx="1.1664" ry="1.1664" fill="white"/>
</svg>
