<svg width="28" height="26" viewBox="0 0 28 26" fill="none" xmlns="http://www.w3.org/2000/svg">
<path d="M5.21012 21.2127V21.3127H5.31012H22.6937H22.7937V21.2127V19.0876V18.9876H22.6937H5.31012H5.21012V19.0876V21.2127ZM23.0737 21.8878H4.93008C4.77874 21.8878 4.65005 21.7594 4.65005 21.6003V18.7125C4.65005 18.5534 4.77874 18.425 4.93008 18.425H23.0737C23.225 18.425 23.3537 18.5534 23.3537 18.7125V21.6003C23.3537 21.7594 23.225 21.8878 23.0737 21.8878Z" fill="#7E818C" stroke="#7E818C" stroke-width="0.2"/>
<path d="M24.1534 25.0164H3.85213C2.8549 25.0164 2.0397 24.188 2.0397 23.1663C2.0397 22.1446 2.8549 21.3161 3.85213 21.3161H24.1534C25.1506 21.3161 25.9658 22.1446 25.9658 23.1663C25.9658 24.188 25.1506 25.0164 24.1534 25.0164ZM3.85213 21.8912C3.15759 21.8912 2.59977 22.4628 2.59977 23.1663C2.59977 23.8697 3.15759 24.4414 3.85213 24.4414H24.1534C24.8479 24.4414 25.4057 23.8697 25.4057 23.1663C25.4057 22.4628 24.8479 21.8912 24.1534 21.8912H3.85213Z" fill="#7E818C" stroke="#7E818C" stroke-width="0.2"/>
<path d="M27.62 25.0157H0.380035C0.228689 25.0157 0.1 24.8873 0.1 24.7282C0.1 24.569 0.228689 24.4406 0.380035 24.4406H27.62C27.7713 24.4406 27.9 24.569 27.9 24.7282C27.9 24.8873 27.7713 25.0157 27.62 25.0157Z" fill="#7E818C" stroke="#7E818C" stroke-width="0.2"/>
<path d="M6.91521 18.5138C5.07633 16.6511 3.94849 14.0884 3.94849 11.2382C3.94849 5.58783 8.44761 1 14.001 1C19.5544 1 24.0536 5.58783 24.0536 11.2507C24.0536 14.0759 22.9257 16.6386 21.1114 18.5013L6.92747 18.5263L6.91521 18.5138Z" stroke="#7E818C" stroke-miterlimit="10"/>
<path d="M11.375 8.51377C10.4125 8.51377 9.625 7.71074 9.625 6.72927C9.625 5.74779 10.4125 4.94476 11.375 4.94476C12.3375 4.94476 13.125 5.74779 13.125 6.72927C13.125 7.71074 12.3375 8.51377 11.375 8.51377ZM11.375 5.58718C10.7625 5.58718 10.255 6.10469 10.255 6.72927C10.255 7.35384 10.7625 7.87135 11.375 7.87135C11.9875 7.87135 12.495 7.35384 12.495 6.72927C12.495 6.10469 11.9875 5.58718 11.375 5.58718Z" fill="#7E818C"/>
<path d="M8.83114 14.1788C8.15689 14.1788 7.60522 13.6163 7.60522 12.9287C7.60522 12.2412 8.15689 11.6786 8.83114 11.6786C9.5054 11.6786 10.0571 12.2412 10.0571 12.9287C10.0571 13.6163 9.5054 14.1788 8.83114 14.1788ZM8.83114 12.1287C8.40207 12.1287 8.04656 12.4912 8.04656 12.9287C8.04656 13.3663 8.40207 13.7288 8.83114 13.7288C9.26022 13.7288 9.61573 13.3663 9.61573 12.9287C9.61573 12.4912 9.26022 12.1287 8.83114 12.1287Z" fill="#7E818C"/>
<path fill-rule="evenodd" clip-rule="evenodd" d="M15.095 11.6457L12.25 10.5928L15.095 9.53978L16.148 6.69476L17.201 9.53978L20.046 10.5928L17.201 11.6457L16.148 14.4907L15.095 11.6457Z" fill="#7E818C" stroke="#7E818C" stroke-linejoin="round"/>
</svg>
