<svg width="24" height="24" viewBox="0 0 24 24" fill="none" xmlns="http://www.w3.org/2000/svg">
<g clip-path="url(#clip0_4_1341)">
<path fill-rule="evenodd" clip-rule="evenodd" d="M6.61324 19.9513C6.6954 20.0079 6.7893 20.0345 6.88213 20.0345V20.0335C7.03579 20.0335 7.18731 19.9598 7.28014 19.8233C7.41582 19.6222 7.38006 19.3559 7.20473 19.1977L8.57145 18.5143L10.9714 16.4572L12.6857 15.0857L14.4 13.3714L15.7714 12L18.8572 8.22859L19.321 7.30089C19.4739 7.38468 19.6676 7.38201 19.8222 7.27694C20.042 7.12755 20.0996 6.82985 19.9502 6.61004C18.1576 3.9723 15.1859 2.39734 12.0008 2.39734C6.705 2.39734 2.39734 6.705 2.39734 12.0008C2.39734 15.187 3.97337 18.1597 6.61324 19.9513Z" fill="#7E818C"/>
<path d="M4.14439 21.1222C3.76665 21.1222 3.45188 21.0165 3.21926 20.7839C2.83192 20.3966 2.77537 19.7649 3.05173 18.907C3.13283 18.6541 3.40386 18.5154 3.65568 18.5975C3.9075 18.6786 4.04729 18.9497 3.96512 19.2015C3.77839 19.7809 3.83494 20.0423 3.8979 20.1042C4.41008 20.6142 8.26212 18.7458 13.5034 13.5034C18.7469 8.25998 20.6142 4.40795 20.1042 3.8979C20.0412 3.83494 19.7798 3.77839 19.2004 3.96512C18.9486 4.04835 18.6776 3.9075 18.5965 3.65568C18.5154 3.40279 18.6541 3.13283 18.9059 3.05173C19.7638 2.77537 20.3955 2.83192 20.7828 3.21926C22.5083 4.94467 17.22 11.1463 14.1821 14.1832C11.555 16.8102 6.56125 21.1222 4.14332 21.1222H4.14439Z" fill="#7E818C"/>
<path d="M2.67845 24.0004C1.86962 24.0004 1.19632 23.7784 0.710812 23.2929C-0.477877 22.1053 -0.167367 19.6778 1.58366 16.4585C1.71063 16.2259 2.00194 16.1395 2.23455 16.2664C2.46717 16.3934 2.5536 16.6847 2.42769 16.9173C0.941294 19.6479 0.553957 21.7777 1.38945 22.6132C2.92173 24.1434 8.98576 21.4939 15.2397 15.2389C21.4937 8.98597 24.1453 2.92195 22.613 1.38967C21.7775 0.553109 19.6487 0.941513 16.9203 2.42577C16.6877 2.55275 16.3964 2.46632 16.2694 2.23371C16.1424 2.00109 16.2289 1.70872 16.4625 1.58281C19.6786 -0.168215 22.1051 -0.476591 23.2927 0.711031C25.7448 3.1631 21.4691 10.3689 15.9184 15.9196C11.4688 20.3703 5.95321 24.0004 2.67845 24.0014V24.0004Z" fill="#7E818C"/>
<path d="M7.05317 15.5735C6.93046 15.5735 6.80775 15.5266 6.71385 15.4327C6.52605 15.2449 6.52605 14.9408 6.71385 14.754L9.23101 12.2369C9.41881 12.0491 9.72292 12.0491 9.90965 12.2369C10.0975 12.4247 10.0975 12.7288 9.90965 12.9155L7.39249 15.4327C7.29859 15.5266 7.17588 15.5735 7.05317 15.5735Z" fill="#171B2B"/>
<path d="M6.85468 11.698C6.73197 11.698 6.60926 11.6511 6.51536 11.5572C6.32756 11.3694 6.32756 11.0653 6.51536 10.8785L7.87371 9.52018C8.06151 9.33238 8.36562 9.33238 8.55235 9.52018C8.73909 9.70798 8.74015 10.0121 8.55235 10.1988L7.194 11.5572C7.1001 11.6511 6.97739 11.698 6.85468 11.698Z" fill="#171B2B"/>
<path d="M9.57136 8.98239C9.44865 8.98239 9.32594 8.93544 9.23204 8.84154C9.04424 8.65374 9.04424 8.34963 9.23204 8.16289L11.7492 5.64573C11.937 5.45793 12.2411 5.45793 12.4278 5.64573C12.6146 5.83353 12.6156 6.13764 12.4278 6.32437L9.91068 8.84154C9.81678 8.93544 9.69407 8.98239 9.57136 8.98239Z" fill="#171B2B"/>
<path d="M10.9287 11.698C10.8059 11.698 10.6832 11.6511 10.5893 11.5572C10.4015 11.3694 10.4015 11.0653 10.5893 10.8785L11.9477 9.52018C12.1355 9.33238 12.4396 9.33238 12.6263 9.52018C12.8131 9.70798 12.8141 10.0121 12.6263 10.1988L11.268 11.5572C11.1741 11.6511 11.0514 11.698 10.9287 11.698Z" fill="#171B2B"/>
<path fill-rule="evenodd" clip-rule="evenodd" d="M9.2437 21.2037C10.1347 21.4694 11.0619 21.6049 11.9999 21.6049L12.0009 21.607C17.2967 21.607 21.6044 17.2994 21.6044 12.0036C21.6044 11.0646 21.4688 10.1374 21.2021 9.24639C21.1263 8.99243 20.8596 8.84731 20.6045 8.92414C20.3506 8.9999 20.2065 9.26773 20.2823 9.52169C20.3578 9.77322 20.4215 10.0281 20.4735 10.2857H20.2286L19.5428 10.9714L17.4857 13.3714L15.7714 15.0857L13.7143 17.1428L11.3143 19.2L10.2857 20.2286L10.1739 20.4522C9.95344 20.4047 9.73498 20.3486 9.519 20.2839C9.26611 20.2071 8.99721 20.3522 8.92145 20.6062C8.84463 20.8601 8.98974 21.1279 9.2437 21.2037Z" fill="#7E818C"/>
</g>
<defs>
<clipPath id="clip0_4_1341">
<rect width="24" height="24" fill="white"/>
</clipPath>
</defs>
</svg>
