<svg width="18" height="24" viewBox="0 0 18 24" fill="none" xmlns="http://www.w3.org/2000/svg">
<g clip-path="url(#clip0_4_1328)">
<path d="M3.31579 4.62857H2.29263C1.02842 4.62857 0 3.59074 0 2.31429C0 1.03783 1.02842 0 2.29263 0H17.5263C17.7884 0 18 0.206743 18 0.462857C18 0.718971 17.7884 0.925714 17.5263 0.925714H2.29263C1.55158 0.925714 0.947368 1.54903 0.947368 2.31429C0.947368 3.07954 1.55053 3.70286 2.29263 3.70286H3.31579C3.57789 3.70286 3.78947 3.9096 3.78947 4.16571C3.78947 4.42183 3.57789 4.62857 3.31579 4.62857Z" fill="#7E818C"/>
<path d="M17.5263 23.1429H2.29263C1.02842 23.1429 0 22.105 0 20.8286V2.3143C0 2.05818 0.211579 1.85144 0.473684 1.85144C0.735789 1.85144 0.947368 2.05818 0.947368 2.3143V20.8286C0.947368 21.5938 1.55053 22.2172 2.29263 22.2172H17.0526V4.62858H9.94737C9.68526 4.62858 9.47368 4.42184 9.47368 4.16573C9.47368 3.90961 9.68526 3.70287 9.94737 3.70287H17.5263C17.7884 3.70287 18 3.90961 18 4.16573V22.68C18 22.9361 17.7884 23.1429 17.5263 23.1429Z" fill="#7E818C"/>
<path d="M14.6842 18.5143H5.2105C4.9484 18.5143 4.73682 18.3075 4.73682 18.0514C4.73682 17.7953 4.9484 17.5886 5.2105 17.5886H14.6842C14.9463 17.5886 15.1579 17.7953 15.1579 18.0514C15.1579 18.3075 14.9463 18.5143 14.6842 18.5143Z" fill="#7E818C"/>
<path d="M14.6842 15.7371H5.2105C4.9484 15.7371 4.73682 15.5304 4.73682 15.2743C4.73682 15.0181 4.9484 14.8114 5.2105 14.8114H14.6842C14.9463 14.8114 15.1579 15.0181 15.1579 15.2743C15.1579 15.5304 14.9463 15.7371 14.6842 15.7371Z" fill="#7E818C"/>
<path fill-rule="evenodd" clip-rule="evenodd" d="M16.5781 4.6309C16.4139 4.6309 16.256 4.54862 16.1676 4.39947C15.8721 3.90225 15.6872 3.34874 15.6222 2.77728H8.52725V10.6458C8.52725 10.8166 8.43146 10.9729 8.27672 11.0542C8.20725 11.0912 8.13041 11.1087 8.05357 11.1087C7.96199 11.1087 7.87041 11.083 7.79041 11.0305L6.64808 10.2857H6.61694L5.47462 11.0305C5.32935 11.1252 5.14199 11.1334 4.9883 11.0532C4.83462 10.9729 4.73778 10.8156 4.73778 10.6448V2.77728H2.36883C2.10672 2.77728 1.89514 2.57053 1.89514 2.31442C1.89514 2.05831 2.10672 1.85156 2.36883 1.85156H5.21146H8.05357H15.6224C15.6876 1.28082 15.8728 0.728773 16.1666 0.231702C16.296 0.0105587 16.5855 -0.0665841 16.8139 0.0630159C17.0402 0.191587 17.1181 0.474444 16.9866 0.695587C16.7015 1.17593 16.5492 1.72458 16.5436 2.28326C16.5443 2.29356 16.5446 2.30395 16.5446 2.31442C16.5446 2.32499 16.5443 2.33547 16.5435 2.34586C16.5489 2.90525 16.7022 3.45468 16.9876 3.93662C17.1192 4.15776 17.0413 4.44062 16.815 4.56919C16.7402 4.61136 16.6581 4.63193 16.5781 4.63193V4.6309Z" fill="#7E818C"/>
</g>
<defs>
<clipPath id="clip0_4_1328">
<rect width="18" height="23.1429" fill="white"/>
</clipPath>
</defs>
</svg>
