<?xml version="1.0" encoding="UTF-8"?>
<svg id="_레이어_2" data-name="레이어_2" xmlns="http://www.w3.org/2000/svg" viewBox="0 0 28 19.49">
  <defs>
    <style>
      .cls-1 {
        fill: #7e818c;
      }
    </style>
  </defs>
  <g id="_레이어_1-2">
    <path class="cls-1" d="M4.55,7.49c0-1.38.32-2.68.88-3.8-3.05.39-5.43,3.38-5.43,7.01,0,2.39,1.03,4.51,2.61,5.78v2.29c0,.56.53.91.95.62l2.34-1.64c.07,0,.14,0,.21,0h10.13c1.94,0,3.67-1.04,4.78-2.67h-9.9c-3.62,0-6.57-3.41-6.57-7.6h0Z"/>
    <path class="cls-1" d="M24.9,16.07l-2.8-1.96h-.21s-10.13,0-10.13,0c-3.37,0-6.1-3.16-6.1-7.05S8.39,0,11.76,0h10.13c3.37,0,6.1,3.17,6.1,7.06h-1.2c0-3.23-2.2-5.86-4.91-5.86h-10.13c-2.7,0-4.9,2.63-4.9,5.85s2.2,5.86,4.9,5.86l10.69-.02,1.73,1.21v-1.84l.44-.36c1.36-1.1,2.17-2.91,2.17-4.85h1.2c0,2.3-.97,4.46-2.61,5.78v2.29c0,.17-.05.33-.14.46l-.35.48Z"/>
    <circle class="cls-1" cx="12.05" cy="6.61" r="1.17"/>
    <circle class="cls-1" cx="17.08" cy="6.61" r="1.17"/>
    <circle class="cls-1" cx="22.11" cy="6.61" r="1.17"/>
  </g>
</svg>