<svg width="20" height="21" viewBox="0 0 20 21" fill="none" xmlns="http://www.w3.org/2000/svg">
<path fill-rule="evenodd" clip-rule="evenodd" d="M9.96104 10.1909C9.97418 10.1765 9.98725 10.162 10.0002 10.1474C10.0132 10.162 10.0263 10.1765 10.0394 10.1909C10.0263 10.2053 10.0132 10.2199 10.0002 10.2344C9.98725 10.2199 9.97418 10.2053 9.96104 10.1909ZM10.0002 17.4602C9.05301 18.5241 7.69307 19.1909 6.18208 19.1909C3.3201 19.1909 1 16.7985 1 13.8473C1 12.4329 1.53297 11.1468 2.40312 10.1909C1.53297 9.23505 1 7.94895 1 6.53448C1 3.58331 3.3201 1.19092 6.18208 1.19092C7.69307 1.19092 9.05301 1.85776 10.0002 2.9216C10.9475 1.85776 12.3074 1.19092 13.8184 1.19092C16.6804 1.19092 19.0005 3.58331 19.0005 6.53448C19.0005 7.94895 18.4675 9.23505 17.5974 10.1909C18.4675 11.1468 19.0005 12.4329 19.0005 13.8473C19.0005 16.7985 16.6804 19.1909 13.8184 19.1909C12.3074 19.1909 10.9475 18.5241 10.0002 17.4602Z" fill="#4BD1A9"/>
<path d="M10.4181 14.3784C9.85644 14.3784 9.33082 14.2812 8.84119 14.0868C8.35157 13.8852 7.92315 13.6079 7.55593 13.2551C7.19591 12.9023 6.91149 12.4919 6.70268 12.0239C6.50107 11.5486 6.40027 11.0374 6.40027 10.4902C6.40027 9.93575 6.50107 9.42453 6.70268 8.95651C6.91149 8.48128 7.19951 8.06726 7.56673 7.71444C7.93395 7.36163 8.35877 7.08801 8.84119 6.8936C9.33082 6.69199 9.85644 6.59119 10.4181 6.59119C10.8357 6.59119 11.2389 6.64879 11.6277 6.76399C12.0166 6.8792 12.3766 7.04121 12.7078 7.25002C13.0462 7.45883 13.3342 7.71084 13.5718 8.00606L12.5134 9.05371C12.2398 8.71529 11.9229 8.45968 11.5629 8.28687C11.2101 8.11406 10.8285 8.02766 10.4181 8.02766C10.0797 8.02766 9.76284 8.09246 9.46762 8.22207C9.17241 8.34447 8.9168 8.51728 8.70078 8.74049C8.48477 8.95651 8.31556 9.21572 8.19316 9.51813C8.07075 9.81335 8.00955 10.1374 8.00955 10.4902C8.00955 10.8358 8.07075 11.1598 8.19316 11.4622C8.31556 11.7574 8.48837 12.0167 8.71158 12.2399C8.9348 12.4559 9.19401 12.6251 9.48922 12.7475C9.79164 12.8699 10.1193 12.9311 10.4721 12.9311C10.8681 12.9311 11.2389 12.8483 11.5845 12.6827C11.9301 12.5171 12.2362 12.2795 12.5026 11.9699L13.5286 12.9851C13.291 13.2731 13.0066 13.5215 12.6754 13.7303C12.3442 13.9392 11.9841 14.1012 11.5953 14.2164C11.2137 14.3244 10.8213 14.3784 10.4181 14.3784Z" fill="black"/>
</svg>
