<svg width="24" height="24" viewBox="0 0 24 24" fill="none" xmlns="http://www.w3.org/2000/svg">
<path d="M11.701 12.8969L15.601 8.99685C15.7843 8.81352 16.0176 8.72185 16.301 8.72185C16.5843 8.72185 16.8176 8.81352 17.001 8.99685C17.1843 9.18018 17.276 9.41352 17.276 9.69685C17.276 9.98018 17.1843 10.2135 17.001 10.3969L12.401 14.9969C12.301 15.0969 12.1926 15.1677 12.076 15.2094C11.9593 15.251 11.8343 15.2719 11.701 15.2719C11.5676 15.2719 11.4426 15.251 11.326 15.2094C11.2093 15.1677 11.101 15.0969 11.001 14.9969L6.40098 10.3969C6.21764 10.2135 6.12598 9.98018 6.12598 9.69685C6.12598 9.41352 6.21764 9.18018 6.40098 8.99685C6.58431 8.81352 6.81764 8.72185 7.10098 8.72185C7.38431 8.72185 7.61764 8.81352 7.80098 8.99685L11.701 12.8969Z" fill="#D9D9D9"/>
</svg>
