<svg width="24" height="24" viewBox="0 0 24 24" fill="none" xmlns="http://www.w3.org/2000/svg">
<path d="M10.2222 20.125C9.97037 20.125 9.75926 20.0411 9.58889 19.8734C9.41852 19.7057 9.33333 19.4979 9.33333 19.25C9.33333 19.0021 9.41852 18.7943 9.58889 18.6266C9.75926 18.4589 9.97037 18.375 10.2222 18.375H19.1111C19.363 18.375 19.5741 18.4589 19.7444 18.6266C19.9148 18.7943 20 19.0021 20 19.25C20 19.4979 19.9148 19.7057 19.7444 19.8734C19.5741 20.0411 19.363 20.125 19.1111 20.125H10.2222ZM10.2222 13.875C9.97037 13.875 9.75926 13.7911 9.58889 13.6234C9.41852 13.4557 9.33333 13.2479 9.33333 13C9.33333 12.7521 9.41852 12.5443 9.58889 12.3766C9.75926 12.2089 9.97037 12.125 10.2222 12.125H19.1111C19.363 12.125 19.5741 12.2089 19.7444 12.3766C19.9148 12.5443 20 12.7521 20 13C20 13.2479 19.9148 13.4557 19.7444 13.6234C19.5741 13.7911 19.363 13.875 19.1111 13.875H10.2222ZM10.2222 7.625C9.97037 7.625 9.75926 7.54115 9.58889 7.37344C9.41852 7.20573 9.33333 6.99792 9.33333 6.75C9.33333 6.50208 9.41852 6.29427 9.58889 6.12656C9.75926 5.95885 9.97037 5.875 10.2222 5.875H19.1111C19.363 5.875 19.5741 5.95885 19.7444 6.12656C19.9148 6.29427 20 6.50208 20 6.75C20 6.99792 19.9148 7.20573 19.7444 7.37344C19.5741 7.54115 19.363 7.625 19.1111 7.625H10.2222ZM5.77778 21C5.28889 21 4.87037 20.8286 4.52222 20.4859C4.17407 20.1432 4 19.7312 4 19.25C4 18.7688 4.17407 18.3568 4.52222 18.0141C4.87037 17.6714 5.28889 17.5 5.77778 17.5C6.26667 17.5 6.68519 17.6714 7.03333 18.0141C7.38148 18.3568 7.55556 18.7688 7.55556 19.25C7.55556 19.7312 7.38148 20.1432 7.03333 20.4859C6.68519 20.8286 6.26667 21 5.77778 21ZM5.77778 14.75C5.28889 14.75 4.87037 14.5786 4.52222 14.2359C4.17407 13.8932 4 13.4812 4 13C4 12.5188 4.17407 12.1068 4.52222 11.7641C4.87037 11.4214 5.28889 11.25 5.77778 11.25C6.26667 11.25 6.68519 11.4214 7.03333 11.7641C7.38148 12.1068 7.55556 12.5188 7.55556 13C7.55556 13.4812 7.38148 13.8932 7.03333 14.2359C6.68519 14.5786 6.26667 14.75 5.77778 14.75ZM5.77778 8.5C5.28889 8.5 4.87037 8.32865 4.52222 7.98594C4.17407 7.64323 4 7.23125 4 6.75C4 6.26875 4.17407 5.85677 4.52222 5.51406C4.87037 5.17135 5.28889 5 5.77778 5C6.26667 5 6.68519 5.17135 7.03333 5.51406C7.38148 5.85677 7.55556 6.26875 7.55556 6.75C7.55556 7.23125 7.38148 7.64323 7.03333 7.98594C6.68519 8.32865 6.26667 8.5 5.77778 8.5Z" fill="#333333"/>
</svg>
