<svg width="327" height="28" viewBox="0 0 327 28" fill="none" xmlns="http://www.w3.org/2000/svg">
<g clip-path="url(#clip0_17_1893)">
<path d="M163.5 14.2295C163.421 14.2295 163.341 14.2007 163.282 14.1414L159.429 10.3901C157.586 8.59577 157.586 5.67638 159.429 3.88375L160.158 3.17381C162.001 1.37948 165 1.37948 166.841 3.17381L167.57 3.88544C168.463 4.75465 168.954 5.9102 168.954 7.13862C168.954 8.36703 168.461 9.52258 167.568 10.3918L163.715 14.1431C163.654 14.2024 163.576 14.2312 163.498 14.2312L163.5 14.2295ZM163.5 2.42999C162.448 2.42999 161.396 2.81969 160.595 3.5991L159.866 4.30903C158.265 5.86785 158.265 8.406 159.866 9.96651L163.5 13.5043L167.133 9.96651C167.909 9.21082 168.336 8.20606 168.336 7.13862C168.336 6.07117 167.908 5.06641 167.133 4.31073L166.404 3.5991C165.604 2.81969 164.551 2.42999 163.5 2.42999Z" fill="#B2B2B2"/>
<path d="M163.5 26.1714C162.238 26.1714 161.051 25.6919 160.158 24.8227L159.429 24.1127C157.586 22.3184 157.586 19.4007 159.429 17.6064L163.282 13.8551C163.402 13.7382 163.597 13.7382 163.719 13.8551L167.572 17.6064C168.465 18.4756 168.957 19.6312 168.957 20.8596C168.957 22.088 168.465 23.2435 167.572 24.1127L166.843 24.8227C165.95 25.6919 164.763 26.1714 163.5 26.1714ZM163.5 14.4939L159.866 18.0317C158.265 19.5922 158.265 22.1286 159.866 23.6875L160.595 24.3974C161.371 25.1531 162.403 25.5682 163.5 25.5682C164.596 25.5682 165.628 25.1514 166.404 24.3974L167.133 23.6875C167.909 22.9318 168.338 21.927 168.338 20.8596C168.338 19.7921 167.909 18.7874 167.135 18.0317L163.501 14.4939H163.5Z" fill="#B2B2B2"/>
<path d="M170.546 19.3075C169.337 19.3075 168.125 18.8602 167.205 17.9621L163.352 14.2108C163.232 14.0939 163.232 13.9025 163.352 13.7855L167.205 10.0342C168.097 9.16502 169.284 8.68552 170.546 8.68552C171.808 8.68552 172.995 9.16502 173.887 10.0342L174.617 10.7442C176.459 12.5385 176.459 15.4579 174.617 17.2505L173.887 17.9605C172.967 18.8568 171.756 19.3058 170.546 19.3058V19.3075ZM164.008 13.999L167.642 17.5369C169.244 19.0957 171.848 19.0957 173.452 17.5369L174.181 16.8269C175.783 15.2681 175.783 12.73 174.181 11.1695L173.452 10.4595C172.676 9.70383 171.644 9.28701 170.548 9.28701C169.451 9.28701 168.419 9.70383 167.643 10.4578L164.01 13.9956L164.008 13.999Z" fill="#B2B2B2"/>
<path d="M156.454 19.3075C155.245 19.3075 154.033 18.8585 153.113 17.9621L152.384 17.2505C151.491 16.3813 151 15.2258 151 13.9973C151 12.7689 151.492 11.6134 152.385 10.7442L153.114 10.0342C154.007 9.16502 155.194 8.68552 156.456 8.68552C157.717 8.68552 158.904 9.16502 159.797 10.0342L163.648 13.7855C163.768 13.9025 163.768 14.0939 163.648 14.2108L159.795 17.9621C158.875 18.8585 157.665 19.3075 156.454 19.3075ZM156.454 9.28871C155.358 9.28871 154.326 9.70552 153.549 10.4595L152.82 11.1695C152.044 11.9251 151.618 12.9299 151.618 13.9973C151.618 15.0648 152.046 16.0695 152.82 16.8252L153.549 17.5369C155.151 19.0957 157.757 19.0957 159.359 17.5369L162.992 13.999L159.359 10.4612C158.582 9.70552 157.55 9.2904 156.454 9.2904V9.28871Z" fill="#B2B2B2"/>
<path d="M163.504 14.2702C163.425 14.2702 163.345 14.2414 163.286 14.1821L161.659 12.5978C160.812 11.7727 160.812 10.4291 161.659 9.60391L161.967 9.304C162.815 8.47716 164.195 8.47716 165.042 9.304L165.35 9.60391C166.198 10.4291 166.198 11.7727 165.35 12.5978L163.723 14.1821C163.662 14.2414 163.584 14.2702 163.505 14.2702H163.504ZM163.504 9.28537C163.088 9.28537 162.696 9.44294 162.402 9.72929L162.094 10.0292C161.8 10.3155 161.638 10.6968 161.638 11.1017C161.638 11.5067 161.8 11.8879 162.094 12.1743L163.504 13.5467L164.913 12.1743C165.207 11.8879 165.369 11.5067 165.369 11.1017C165.369 10.6968 165.207 10.3155 164.913 10.0292L164.605 9.72929C164.311 9.44294 163.92 9.28537 163.504 9.28537Z" fill="#B2B2B2"/>
<path d="M163.502 19.3125C162.945 19.3125 162.388 19.1058 161.963 18.6924L161.655 18.3925C160.808 17.5673 160.808 16.2237 161.655 15.3986L163.282 13.8143C163.402 13.6974 163.597 13.6974 163.719 13.8143L165.346 15.3986C166.194 16.2237 166.194 17.5673 165.346 18.3925L165.038 18.6924C164.614 19.1058 164.058 19.3125 163.5 19.3125H163.502ZM163.502 14.4531L162.092 15.8255C161.485 16.4169 161.485 17.3776 162.092 17.9706L162.4 18.2705C163.007 18.8601 163.994 18.8601 164.603 18.2705L164.911 17.9706C165.519 17.3793 165.519 16.4186 164.911 15.8255L163.502 14.4531Z" fill="#B2B2B2"/>
<path d="M166.474 16.4152C165.917 16.4152 165.361 16.2085 164.936 15.7951L163.309 14.2108C163.189 14.0939 163.189 13.9025 163.309 13.7856L164.936 12.2013C165.782 11.3762 167.164 11.3762 168.011 12.2013L168.319 12.5012C169.167 13.3264 169.167 14.67 168.319 15.4952L168.011 15.7951C167.586 16.2085 167.03 16.4152 166.473 16.4152H166.474ZM163.965 13.999L165.375 15.3715C165.982 15.9611 166.969 15.9628 167.578 15.3715L167.886 15.0716C168.18 14.7852 168.342 14.404 168.342 13.999C168.342 13.5941 168.18 13.2129 167.886 12.9265L167.578 12.6266C166.97 12.037 165.984 12.037 165.375 12.6266L163.965 13.999Z" fill="#B2B2B2"/>
<path d="M160.522 16.4153C159.966 16.4153 159.409 16.2086 158.984 15.7951L158.676 15.4952C158.265 15.0954 158.039 14.5633 158.039 13.9974C158.039 13.4315 158.265 12.8995 158.676 12.4996L158.984 12.1997C159.833 11.3746 161.213 11.3746 162.061 12.1997L163.688 13.7856C163.808 13.9025 163.808 14.094 163.688 14.2109L162.061 15.7951C161.636 16.2086 161.079 16.4153 160.522 16.4153ZM160.522 12.1828C160.124 12.1828 159.724 12.3302 159.421 12.6267L159.113 12.9266C158.819 13.2129 158.657 13.5942 158.657 13.9991C158.657 14.4041 158.819 14.7853 159.113 15.07L159.421 15.3699C160.028 15.9595 161.015 15.9612 161.624 15.3699L163.034 13.9974L161.624 12.625C161.319 12.3302 160.921 12.1828 160.522 12.1828Z" fill="#B2B2B2"/>
<path d="M183.724 16.9458C182.054 16.9458 180.695 15.6225 180.695 13.9971C180.695 12.3717 182.054 11.0484 183.724 11.0484C185.393 11.0484 186.753 12.3717 186.753 13.9971C186.753 15.6225 185.393 16.9458 183.724 16.9458ZM183.724 11.7402C182.445 11.7402 181.406 12.7517 181.406 13.9971C181.406 15.2424 182.445 16.2539 183.724 16.2539C185.003 16.2539 186.042 15.2424 186.042 13.9971C186.042 12.7517 185.003 11.7402 183.724 11.7402Z" fill="#B2B2B2"/>
<path d="M326.916 14.344H186.448C186.252 14.344 186.094 14.19 186.094 13.999C186.094 13.808 186.252 13.6541 186.448 13.6541H326.916C327.113 13.6541 326.916 13.808 326.916 13.999C326.916 14.19 327.113 14.344 326.916 14.344Z" fill="#B2B2B2"/>
<path d="M143.275 16.9458C141.605 16.9458 140.246 15.6225 140.246 13.9971C140.246 12.3717 141.605 11.0484 143.275 11.0484C144.944 11.0484 146.303 12.3717 146.303 13.9971C146.303 15.6225 144.944 16.9458 143.275 16.9458ZM143.275 11.7402C141.996 11.7402 140.957 12.7517 140.957 13.9971C140.957 15.2424 141.996 16.2539 143.275 16.2539C144.554 16.2539 145.593 15.2424 145.593 13.9971C145.593 12.7517 144.552 11.7402 143.275 11.7402Z" fill="#B2B2B2"/>
<path d="M140.555 14.344H0.0871858C-0.108982 14.344 0.0871858 14.19 0.0871858 13.999C0.0871858 13.808 -0.108982 13.6541 0.0871858 13.6541H140.557C140.754 13.6541 140.912 13.808 140.912 13.999C140.912 14.19 140.754 14.344 140.557 14.344H140.555Z" fill="#B2B2B2"/>
</g>
<defs>
<clipPath id="clip0_17_1893">
<rect width="327" height="28" fill="white"/>
</clipPath>
</defs>
</svg>
