<svg width="24" height="24" viewBox="0 0 24 24" fill="none" xmlns="http://www.w3.org/2000/svg">
<path d="M13.413 12.0031L7.32484 6.66569C7.11787 6.48426 7.012 6.25621 7.00721 5.98153C7.0024 5.70686 7.10828 5.47462 7.32484 5.28478C7.54138 5.09493 7.80391 5 8.11242 5C8.42094 5 8.68346 5.09493 8.9 5.28478L15.6177 11.174C15.7576 11.2967 15.8563 11.426 15.9138 11.5621C15.9713 11.6982 16 11.8452 16 12.0031C16 12.161 15.9713 12.308 15.9138 12.4441C15.8563 12.5802 15.7576 12.7095 15.6177 12.8322L8.9 18.7214C8.69305 18.9029 8.43292 18.9957 8.1196 18.9999C7.8063 19.0041 7.54138 18.9113 7.32484 18.7214C7.10828 18.5316 7 18.3014 7 18.031C7 17.7605 7.10828 17.5303 7.32484 17.3405L13.413 12.0031Z" fill="#333333"/>
</svg>
