<svg width="24" height="24" viewBox="0 0 24 24" fill="none" xmlns="http://www.w3.org/2000/svg">
<path d="M10.587 11.9969L16.6752 17.3343C16.8821 17.5157 16.988 17.7438 16.9928 18.0185C16.9976 18.2931 16.8917 18.5254 16.6752 18.7152C16.4586 18.9051 16.1961 19 15.8876 19C15.5791 19 15.3165 18.9051 15.1 18.7152L8.38232 12.826C8.24241 12.7033 8.14372 12.574 8.08625 12.4379C8.02875 12.3018 8 12.1548 8 11.9969C8 11.839 8.02875 11.692 8.08625 11.5559C8.14372 11.4198 8.24241 11.2905 8.38232 11.1678L15.1 5.2786C15.3069 5.09715 15.5671 5.00433 15.8804 5.00014C16.1937 4.99592 16.4586 5.08874 16.6752 5.2786C16.8917 5.46843 17 5.69858 17 5.96905C17 6.23952 16.8917 6.46967 16.6752 6.6595L10.587 11.9969Z" fill="#333333"/>
</svg>
