<svg width="24" height="20" viewBox="0 0 24 20" fill="none" xmlns="http://www.w3.org/2000/svg">
<g clip-path="url(#clip0_32_3065)">
<path d="M10.8753 16.1624C10.2801 15.0457 9.1161 14.2862 7.7805 14.2862H6.3741C5.9865 14.2862 5.6721 13.9668 5.6721 13.5719V1.42874H4.2657C3.8769 1.42874 3.5625 1.74814 3.5625 2.14311V15.715H9.1869C9.7845 15.715 10.3641 15.8747 10.8753 16.1636V16.1624Z" fill="#AABDFF"/>
<path d="M11.2973 14.3618V3.57186C11.2973 1.5982 9.71572 0 7.78132 0C7.39372 0 7.07812 0.319395 7.07812 0.714373V12.8575H7.78132C9.15772 12.8575 10.4033 13.4341 11.2973 14.3618Z" fill="#AABDFF"/>
<path d="M20.4371 15.715V2.14311C20.4371 1.74814 20.1227 1.42874 19.7339 1.42874H14.8127C13.6499 1.42874 12.7031 2.39058 12.7031 3.57186V16.4415C13.3043 15.9783 14.0435 15.715 14.8127 15.715H20.4371Z" fill="#AABDFF"/>
<path d="M24 3.57186C24 3.1781 23.6856 2.85748 23.2968 2.85748H21.8436V16.4293C21.8436 16.8231 21.5292 17.1437 21.1404 17.1437H14.8128C14.0616 17.1437 13.3824 17.5448 12.9984 18.2165C12.8724 18.4359 12.6408 18.5712 12.39 18.5712H11.61C11.3592 18.5712 11.1276 18.4359 11.0016 18.2165C10.6176 17.5448 9.9384 17.1437 9.1872 17.1437H2.8596C2.4708 17.1437 2.1564 16.8243 2.1564 16.4293V2.85748H0.7032C0.3144 2.85748 0 3.17688 0 3.57186V19.2868C0 19.6806 0.3144 20.0012 0.7032 20.0012H23.2968C23.6856 20.0012 24 19.6818 24 19.2868V3.57186Z" fill="#1E2352"/>
</g>
<defs>
<clipPath id="clip0_32_3065">
<rect width="24" height="20" fill="white"/>
</clipPath>
</defs>
</svg>
