<svg width="90" height="20" viewBox="0 0 90 20" fill="none" xmlns="http://www.w3.org/2000/svg">
<path d="M48.8848 2.32156L49.1174 1.46973L49.0205 0.889399C47.7821 0.889399 46.4468 0.695692 45.6529 0.328125L45.3242 0.889399L45.9823 1.77934V17.0679L45.7116 17.6482L46.215 18.3064C47.2017 18.0936 48.6919 17.3196 49.1182 16.6805L48.8856 16.2939V2.32156H48.8848Z" fill="#1E2352"/>
<path d="M38.3763 2.20565C34.3894 2.72803 33.093 4.60556 32.7834 8.22406C33.0398 11.217 33.971 13.0207 36.54 13.8511C34.1592 14.402 31.9577 15.8501 29.6555 16.6972C29.6587 16.6916 29.6642 16.6868 29.6674 16.6813L29.4356 16.2947V9.17196H30.8678L32.0093 9.42362L32.2999 9.21086C32.1062 8.32092 31.6807 7.50798 31.2552 7.14042H30.6359L29.9588 7.45003H29.4364V2.32156L29.6682 1.46973L29.5713 0.889399C28.236 0.889399 26.9396 0.676639 26.2037 0.328125L25.875 0.889399L26.5332 1.77934V17.0679L26.3045 17.5577C23.7149 17.9801 21.0419 17.8848 18.4872 17.2775C17.055 16.9369 15.6975 16.4518 14.3788 15.7969C14.8187 15.3444 15.2243 14.8593 15.5887 14.3441C15.7245 14.152 15.9166 14.0035 16.1428 13.9376C16.2286 13.913 16.5088 13.8701 16.6065 13.8551H23.7657L24.9073 14.1067L25.1979 13.8551C25.043 13.139 24.7144 12.5587 24.269 12.1323L24.8303 4.29435L25.1979 3.75293C25.0621 3.15275 24.7144 2.74629 23.8816 2.20486H23.2624L22.5852 2.51447H15.6181L14.2828 2.28187L14.0121 2.53353C14.0899 3.19165 14.2439 3.54017 14.7671 4.29435V12.546C14.7671 12.7579 14.721 12.9667 14.6313 13.1588L14.5313 13.374C14.2653 13.7717 13.9732 14.1504 13.6532 14.5053C13.6143 14.5481 13.1983 15.1094 13.1475 15.0832C13.1253 15.0713 13.1015 15.061 13.0769 15.0514C13.0165 15.0276 12.9562 15.003 12.8959 14.9792C12.8927 14.9768 12.8887 14.9752 12.8856 14.9728C12.8443 14.9474 12.803 14.9339 12.7633 14.926C10.2816 13.9345 7.88331 12.9778 5.20396 13.1088C3.94804 13.1699 2.55081 13.2787 1.47193 13.9924C0.529592 14.6156 -0.141238 15.708 0.025477 16.8623C0.360495 19.1757 3.2915 19.656 5.18729 19.675C7.34823 19.6972 9.506 19.1106 11.3946 18.0714C12.2743 17.5871 13.0967 16.9972 13.8382 16.3209C16.5184 17.684 19.4906 18.4326 22.5018 18.5231C24.269 18.5763 26.0473 18.4008 27.77 17.9983C29.5499 17.5831 31.1623 16.7956 32.8374 16.0811C34.8475 15.2229 35.7795 14.4433 38.1508 14.2131C38.3199 14.2329 38.4906 14.229 38.6589 14.2036C42.4251 13.6296 43.6675 11.7568 43.9692 8.22486C43.6595 4.60556 42.3631 2.72882 38.3763 2.20645V2.20565ZM17.6306 4.29515H21.6945V12.0164H17.6306V4.29515ZM12.5045 15.7778C10.954 17.0036 8.832 17.8356 6.85206 18.1373C5.35162 18.3659 2.63655 18.3437 1.4235 17.2449C0.695513 16.5852 1.33538 15.4063 2.05225 14.9006C2.94616 14.2695 4.34101 14.0361 5.39211 13.9972C7.71183 13.9114 10.284 14.7998 12.4672 15.5611C12.5601 15.5937 12.5815 15.7175 12.5045 15.7786V15.7778ZM38.3763 12.0752C36.6536 12.0752 35.8795 10.3914 35.8795 8.18516C35.8795 5.97897 36.6536 4.29515 38.3763 4.29515C40.099 4.29515 40.873 5.97897 40.873 8.18516C40.873 10.3914 40.099 12.0752 38.3763 12.0752Z" fill="#1E2352"/>
<path fill-rule="evenodd" clip-rule="evenodd" d="M38.3888 6.58594L38.8341 7.79025L40.0384 8.23642L38.8341 8.68178L38.3888 9.88689L37.9426 8.68178L36.7383 8.23642L37.9426 7.79025L38.3888 6.58594Z" fill="#1E2352"/>
<path d="M62.2371 12.0178H61.637L60.9987 12.3084H55.6575V8.80576H60.6891L61.7148 9.03837L61.9664 8.84466C61.7926 8.01267 61.4242 7.25769 61.0376 6.92903H60.4573L59.8571 7.21959H55.6575V4.08296H61.3274L62.411 4.33462L62.7016 4.12186C62.4888 3.25098 62.1014 2.45789 61.6949 2.10938H61.1146L60.4565 2.41899H52.89L51.8064 2.18638L51.5547 2.43804C51.8254 3.32798 52.116 3.85036 52.5613 4.27667V13.1205L52.3097 13.6627L52.7741 14.301L53.5092 14.0493H61.8696L62.9532 14.301L63.2239 14.0882C63.0302 13.1983 62.6238 12.3465 62.2371 12.0178Z" fill="#1E2352"/>
<path d="M89.9923 13.0667C89.9526 10.4342 87.6345 10.8661 87.6345 10.8661C88.3022 10.8661 88.6165 11.5734 88.6165 11.5734C89.127 14.2457 86.1285 14.2814 86.1285 14.2814H80.7952V11.3782H84.9369L86.0785 11.6298L86.3691 11.4171C86.1754 10.4882 85.7308 9.57843 85.3243 9.23071H84.7051L84.0279 9.54032H76.2288V7.54688H84.2018L85.3434 7.79854L85.6339 7.58578C85.595 7.00546 85.3434 6.34733 85.0147 5.90196L85.3434 3.92837L85.7109 3.38615C85.5371 2.59307 85.1687 2.03179 84.5884 1.66343H83.9692L83.292 1.97305H73.9639L72.5317 1.54753L72.261 1.79919C72.5897 2.84393 72.9382 3.44411 73.6154 3.98553H74.2536L74.699 3.75372H82.2274L82.0146 5.88212H73.9837L72.6484 5.6114L72.3777 5.86306C72.4555 6.57914 72.6683 7.02451 73.1327 7.45003V10.3914L72.862 10.9717L73.3653 11.6298L74.1203 11.3782H77.7007V14.2814H71.6624L70.2303 13.8559C70.2303 13.8559 69.018 13.2247 66.9785 16.2613V9.17196H68.4107L69.5523 9.42362L69.8428 9.21086C69.6491 8.33997 69.2427 7.52704 68.7981 7.14042H68.1789L67.5017 7.45003H66.9793V2.32156L67.2111 1.46973L67.1143 0.889399C65.8179 0.889399 64.5016 0.676639 63.7466 0.328125L63.418 0.889399L64.0761 1.77934V17.0679L63.8054 17.6482L64.3087 18.3064C65.3924 18.0737 66.8055 17.2807 67.2119 16.6805C67.2119 16.6805 69.2244 13.9741 70.0731 14.4489C70.3875 15.3523 70.728 15.8675 71.3155 16.3518H71.9538L72.3991 16.1192H86.4405C86.6437 16.1383 86.8867 16.1399 87.1764 16.1192H87.29C87.29 16.1192 87.2884 16.1121 87.2876 16.1081C90.1281 15.8358 89.9947 13.0667 89.9947 13.0667H89.9923Z" fill="#1E2352"/>
</svg>
