<svg width="44" height="44" viewBox="0 0 44 44" fill="none" xmlns="http://www.w3.org/2000/svg">
<g clip-path="url(#clip0_11_1708)">
<path d="M11.7993 35.7711C11.5535 35.7711 11.3494 35.5742 11.3494 35.327V32.9097C11.3494 31.3669 11.9384 29.8836 13.0142 28.739L13.3899 28.3362L12.8798 28.121C11.2706 27.4389 10.2318 25.8823 10.2318 24.1563C10.2318 22.7417 10.9413 21.414 12.1285 20.6037L12.5969 20.2832L12.1285 19.9627C10.9413 19.1524 10.2318 17.8247 10.2318 16.4101C10.2318 15.3846 10.6074 14.3865 11.2845 13.6082C11.9569 12.8345 12.8798 12.3218 13.8907 12.157L14.169 12.1112L14.2153 11.8365C14.3823 10.8385 14.9063 9.92741 15.6854 9.26358C16.4784 8.59517 17.4847 8.22433 18.5235 8.22433C19.9564 8.22433 21.3013 8.92479 22.1221 10.0968L22.4467 10.5592L22.7713 10.0968C23.5921 8.92479 24.937 8.22433 26.3699 8.22433C27.4087 8.22433 28.4197 8.59517 29.208 9.26358C29.9917 9.92741 30.5111 10.8385 30.6781 11.8365L30.7245 12.1112L31.0027 12.157C32.0136 12.3218 32.9365 12.8391 33.6089 13.6082C34.286 14.3911 34.6616 15.3846 34.6616 16.4101C34.6616 17.8247 33.9521 19.1524 32.7649 19.9627L32.2965 20.2832L32.7649 20.6037C33.9521 21.414 34.6616 22.7417 34.6616 24.1563C34.6616 25.1818 34.286 26.1799 33.6089 26.9581C32.9365 27.7319 32.0136 28.2446 31.0027 28.4094L30.7245 28.4552L30.6781 28.7299C30.5111 29.7279 29.9871 30.639 29.208 31.3028C28.415 31.9712 27.4087 32.3421 26.3699 32.3421C24.937 32.3421 23.5921 31.6416 22.7713 30.4696L22.4467 30.0072L22.1221 30.4696C21.3013 31.6416 19.9564 32.3421 18.5235 32.3421C16.6546 32.3421 14.9944 31.1655 14.3869 29.4212L14.1782 28.8169L13.733 29.2793C12.7917 30.2544 12.2491 31.5775 12.2491 32.9143V35.3316C12.2491 35.5742 12.0497 35.7757 11.7993 35.7757V35.7711ZM23.3603 22.1831C23.2953 22.2152 23.2258 22.2426 23.1516 22.2655L22.8919 22.3571V28.0249C22.8919 29.9156 24.4501 31.4539 26.3653 31.4539C28.2805 31.4539 29.8387 29.9156 29.8387 28.0249C29.8387 27.7822 30.0381 27.5808 30.2885 27.5808C32.2038 27.5808 33.7619 26.0425 33.7619 24.1517C33.7619 22.261 32.2038 20.7227 30.2885 20.7227H24.5474L24.4547 20.9791C24.4269 21.0523 24.399 21.121 24.3712 21.1851L24.2507 21.4323L27.8075 24.9438C27.9838 25.1177 27.9838 25.397 27.8075 25.571C27.7241 25.6534 27.6081 25.6992 27.4922 25.6992C27.3716 25.6992 27.2603 25.6534 27.1768 25.571L23.62 22.0595L23.3695 22.1786L23.3603 22.1831ZM14.6002 20.7273C12.685 20.7273 11.1268 22.2655 11.1268 24.1563C11.1268 26.0471 12.685 27.5854 14.6002 27.5854C14.846 27.5854 15.0501 27.7822 15.0501 28.0294C15.0501 29.9202 16.6082 31.4585 18.5235 31.4585C20.4387 31.4585 21.9969 29.9202 21.9969 28.0294V22.3617L21.7372 22.2701C21.663 22.2426 21.5934 22.2152 21.5285 22.1831L21.2781 22.0641L17.7212 25.5755C17.6377 25.6579 17.5218 25.7037 17.4059 25.7037C17.2853 25.7037 17.174 25.6579 17.0905 25.5755C16.9143 25.4016 16.9143 25.1223 17.0905 24.9483L20.6474 21.4369L20.5268 21.1897C20.4944 21.1256 20.4665 21.0569 20.4434 20.9837L20.3506 20.7273H14.6095H14.6002ZM22.4421 19.07C21.7604 19.07 21.2085 19.6148 21.2085 20.2878C21.2085 20.9608 21.7604 21.5056 22.4421 21.5056C23.1238 21.5056 23.6756 20.9608 23.6756 20.2878C23.6756 19.6148 23.1238 19.07 22.4421 19.07ZM27.4829 14.8672C27.6035 14.8672 27.7148 14.913 27.7983 14.9954C27.8817 15.0778 27.9281 15.1923 27.9281 15.3067C27.9281 15.4212 27.8817 15.5356 27.7983 15.6181L24.2414 19.1295L24.3619 19.3767C24.3944 19.4408 24.4222 19.5095 24.4454 19.5827L24.5382 19.8391H30.2793C32.1945 19.8391 33.7527 18.3009 33.7527 16.4101C33.7527 14.5193 32.1945 12.981 30.2793 12.981C30.0335 12.981 29.8294 12.7842 29.8294 12.537C29.8294 10.6462 28.2713 9.10792 26.356 9.10792C24.4408 9.10792 22.8826 10.6462 22.8826 12.537V18.2047L23.1423 18.2963C23.2165 18.3237 23.2861 18.3512 23.351 18.3833L23.6014 18.5023L27.1583 14.9908C27.2418 14.9084 27.3577 14.8627 27.4736 14.8627L27.4829 14.8672ZM18.5235 9.1125C16.6082 9.1125 15.0501 10.6508 15.0501 12.5415C15.0501 12.7842 14.8507 12.9856 14.6002 12.9856C12.685 12.9856 11.1268 14.5239 11.1268 16.4147C11.1268 18.3054 12.685 19.8437 14.6002 19.8437H20.3413L20.4341 19.5873C20.4619 19.5141 20.4897 19.4454 20.5222 19.3813L20.6428 19.1341L17.0859 15.6226C17.0024 15.5402 16.956 15.4258 16.956 15.3113C16.956 15.1969 17.0024 15.0824 17.0859 15C17.1694 14.9176 17.2853 14.8718 17.4012 14.8718C17.5172 14.8718 17.6331 14.9176 17.7166 15L21.2734 18.5114L21.5239 18.3924C21.5888 18.3604 21.6583 18.3329 21.7325 18.31L21.9922 18.2184V12.5507C21.9922 10.6599 20.4341 9.12165 18.5188 9.12165L18.5235 9.1125Z" fill="#1E2352" stroke="#1E2352" stroke-miterlimit="10"/>
</g>
<defs>
<clipPath id="clip0_11_1708">
<rect width="24.8889" height="28" fill="white" transform="translate(10 8)"/>
</clipPath>
</defs>
</svg>
