<svg width="44" height="44" viewBox="0 0 44 44" fill="none" xmlns="http://www.w3.org/2000/svg">
<g clip-path="url(#clip0_11_1541)">
<path d="M35.9681 32.3006L34.1169 28.8481C34.0268 28.6802 33.7893 28.6597 33.6746 28.8154L32.9988 29.7205L30.9347 28.1765C31.9012 27.1444 32.7572 26.0714 33.6213 24.8386C34.4978 23.5895 34.9278 22.0414 34.8336 20.4729C34.7394 18.9043 34.1251 17.4258 33.1053 16.3118L33.0889 16.2955C31.9135 15.1201 30.3613 14.4894 28.7231 14.5262C27.085 14.5631 25.5614 15.2593 24.4393 16.4879L23.7963 17.1883L23.1533 16.4879C22.0311 15.2593 20.5076 14.5631 18.8694 14.5262C17.3336 14.4934 15.8756 15.0422 14.733 16.0784L13.2668 14.9808L12.7712 12.7733L10.3877 11L10.4081 13.5064L8 14.1986L10.3836 15.976L12.6402 15.8245L14.0367 16.8688C13.2914 17.8968 12.845 19.15 12.763 20.4688C12.6689 22.0373 13.0989 23.5854 13.9753 24.8345C16.3466 28.2092 18.636 30.3921 23.3908 33.8159C23.5137 33.9019 23.657 33.947 23.7963 33.947C23.9355 33.947 24.083 33.9019 24.2017 33.8159C26.7901 31.9525 28.6494 30.4535 30.1893 28.9341L32.364 30.56L31.6883 31.4651C31.5736 31.6208 31.6555 31.8419 31.8439 31.8788L35.6814 32.6774C35.8984 32.7224 36.0745 32.4931 35.9681 32.2965V32.3006ZM23.7963 32.9436C19.1848 29.614 17.0592 27.5744 14.7535 24.2939C13.3241 22.2585 13.3733 19.4203 14.7985 17.4463L19.6557 21.0749C19.496 21.2018 19.3199 21.3124 19.1274 21.3902C18.8571 21.5008 18.7343 21.8121 18.8448 22.0783C18.8817 22.1684 18.9431 22.2421 19.0169 22.2953C19.1602 22.4018 19.3568 22.4346 19.537 22.3609C20.6182 21.9104 21.3677 20.907 21.4905 19.7439C21.5233 19.4531 21.3144 19.1951 21.0236 19.1623C20.7329 19.1295 20.4748 19.3384 20.4421 19.6292C20.4216 19.8381 20.3684 20.0387 20.2865 20.2271L15.5152 16.6641C16.4572 15.8736 17.6244 15.4559 18.853 15.4805C20.2291 15.5091 21.511 16.0989 22.4571 17.1309L23.8004 18.6012L25.1437 17.1309C26.0897 16.0989 27.3675 15.5091 28.7477 15.4805C30.1197 15.4518 31.4221 15.976 32.4132 16.963C34.2111 18.937 34.3954 22.0824 32.8473 24.2939C30.5415 27.5785 28.416 29.614 23.8045 32.9436H23.7963Z" fill="#1E2352" stroke="#1E2352" stroke-width="0.8" stroke-miterlimit="6"/>
</g>
<defs>
<clipPath id="clip0_11_1541">
<rect width="28" height="28" fill="white" transform="translate(8 8)"/>
</clipPath>
</defs>
</svg>
