<svg width="44" height="44" viewBox="0 0 44 44" fill="none" xmlns="http://www.w3.org/2000/svg">
<g clip-path="url(#clip0_11_1618)">
<path d="M23.0672 9.47069L24.2121 10.7293C24.5914 11.1466 25.181 11.3052 25.719 11.1328L27.3397 10.6155C28.15 10.3569 29.0052 10.8534 29.1879 11.6845L29.55 13.3466C29.6707 13.8983 30.1017 14.3293 30.6534 14.45L32.3155 14.8121C33.1466 14.9948 33.6397 15.85 33.3845 16.6603L32.8672 18.281C32.6948 18.819 32.8534 19.4052 33.2707 19.7879L34.5293 20.9328C35.1569 21.5052 35.1569 22.4948 34.5293 23.0672L33.2707 24.2121C32.8534 24.5914 32.6948 25.181 32.8672 25.719L33.3845 27.3397C33.6431 28.15 33.1466 29.0052 32.3155 29.1879L30.6534 29.55C30.1017 29.6707 29.6707 30.1017 29.55 30.6534L29.1879 32.3155C29.0052 33.1466 28.15 33.6397 27.3397 33.3845L25.719 32.8672C25.181 32.6948 24.5948 32.8534 24.2121 33.2707L23.0672 34.5293C22.4948 35.1569 21.5052 35.1569 20.9328 34.5293L19.7879 33.2707C19.4086 32.8534 18.819 32.6948 18.281 32.8672L16.6603 33.3845C15.85 33.6431 14.9948 33.1466 14.8121 32.3155L14.45 30.6534C14.3293 30.1017 13.8983 29.6707 13.3466 29.55L11.6845 29.1879C10.8534 29.0052 10.3603 28.15 10.6155 27.3397L11.1328 25.719C11.3052 25.181 11.1466 24.5948 10.7293 24.2121L9.47069 23.0672C8.8431 22.4948 8.8431 21.5052 9.47069 20.9328L10.7293 19.7879C11.1466 19.4086 11.3052 18.819 11.1328 18.281L10.6155 16.6603C10.3569 15.85 10.8534 14.9948 11.6845 14.8121L13.3466 14.45C13.8983 14.3293 14.3293 13.8983 14.45 13.3466L14.8121 11.6845C14.9948 10.8534 15.85 10.3603 16.6603 10.6155L18.281 11.1328C18.819 11.3052 19.4052 11.1466 19.7879 10.7293L20.9328 9.47069C21.5052 8.8431 22.4948 8.8431 23.0672 9.47069Z" stroke="#1E2352" stroke-width="1.8"/>
<path d="M29.4859 24.3408H28.571L27.2859 20.6672L26.1405 24.3408H25.2256L23.4377 19.0469H24.5552L25.6866 22.5669L26.6993 19.0539H27.8586L28.9271 22.5669L29.8211 19.0469H30.9385L29.4859 24.3408Z" fill="#1E2352"/>
<path fill-rule="evenodd" clip-rule="evenodd" d="M23.3723 19H24.5893L25.6841 22.4059L26.6639 19.007H27.8933L28.923 22.3922L29.7845 19H31L29.5216 24.3877H28.5376L27.2884 20.8166L26.175 24.3877H25.1919L23.3723 19ZM23.5031 19.0938L25.2593 24.2938H26.106L27.2833 20.5178L28.6042 24.2938H29.45L30.8769 19.0938H29.8575L28.9312 22.7414L27.8238 19.1008H26.7345L25.689 22.7278L24.5209 19.0938H23.5031Z" fill="#1E2352"/>
<path d="M23.242 19.9549H20.4135V21.1631H22.8718V22.071H20.4135V23.4329H23.242V24.3408H19.3519V19.0469H23.242V19.9549Z" fill="#1E2352"/>
<path fill-rule="evenodd" clip-rule="evenodd" d="M19.3052 19H23.2891V20.0018H20.4606V21.1161H22.9189V22.1179H20.4606V23.3859H23.2891V24.3877H19.3052V19ZM19.399 19.0938V24.2938H23.1952V23.4798H20.3667V22.0241H22.8251V21.21H20.3667V19.9079H23.1952V19.0938H19.399Z" fill="#1E2352"/>
<path d="M18.831 24.3408H17.6298L15.1086 20.6952V24.3408H14.047V19.0469H15.2482L17.7695 22.7135V19.0469H18.831V24.3408Z" fill="#1E2352"/>
<path fill-rule="evenodd" clip-rule="evenodd" d="M14 19H15.2728L17.7225 22.5625V19H18.8779V24.3877H17.6051L15.1554 20.8455V24.3877H14V19ZM14.0938 19.0938V24.2938H15.0616V20.5448L17.6543 24.2938H18.784V19.0938H17.8163V22.8646L15.2235 19.0938H14.0938Z" fill="#1E2352"/>
</g>
<defs>
<clipPath id="clip0_11_1618">
<rect width="28" height="28" fill="white" transform="translate(8 8)"/>
</clipPath>
</defs>
</svg>
