<svg width="44" height="44" viewBox="0 0 44 44" fill="none" xmlns="http://www.w3.org/2000/svg">
<path fill-rule="evenodd" clip-rule="evenodd" d="M31.7789 13.3014C32.0434 13.5291 32.0732 13.9281 31.8455 14.1926L23.0881 24.363C22.968 24.5025 22.7931 24.5827 22.609 24.5826C22.425 24.5826 22.2501 24.5023 22.1301 24.3628L13.4264 14.2455C13.1988 13.9809 13.2288 13.5819 13.4934 13.3543C13.758 13.1267 14.157 13.1566 14.3846 13.4212L22.6094 22.9819L30.8877 13.3679C31.1154 13.1034 31.5145 13.0737 31.7789 13.3014Z" fill="#1E2352" stroke="#1E2352" stroke-width="0.5" stroke-linecap="round" stroke-linejoin="round"/>
<path fill-rule="evenodd" clip-rule="evenodd" d="M22.6009 23.3187C22.9499 23.3187 23.2329 23.6017 23.2329 23.9507V30.7838C23.2329 31.1328 22.9499 31.4157 22.6009 31.4157C22.2519 31.4157 21.969 31.1328 21.969 30.7838V23.9507C21.969 23.6017 22.2519 23.3187 22.6009 23.3187Z" fill="#1E2352" stroke="#1E2352" stroke-width="0.5" stroke-linecap="round" stroke-linejoin="round"/>
<path fill-rule="evenodd" clip-rule="evenodd" d="M22.2059 30.2867C22.4348 30.1071 22.7567 30.1069 22.9858 30.2862L26.2851 32.8696C26.4974 33.0358 26.5808 33.3184 26.4929 33.5732C26.405 33.8281 26.1651 33.9991 25.8955 33.9991H19.3057C19.0362 33.9991 18.7964 33.8283 18.7084 33.5736C18.6204 33.3189 18.7035 33.0365 18.9154 32.8701L22.2059 30.2867ZM22.5967 31.5868L21.1339 32.7352H24.0634L22.5967 31.5868Z" fill="#1E2352" stroke="#1E2352" stroke-width="0.5" stroke-linecap="round" stroke-linejoin="round"/>
<path fill-rule="evenodd" clip-rule="evenodd" d="M17.311 15.5332C17.311 15.1842 17.594 14.9013 17.943 14.9013H29.6136C29.9626 14.9013 30.2455 15.1842 30.2455 15.5332C30.2455 15.8823 29.9626 16.1652 29.6136 16.1652H17.943C17.594 16.1652 17.311 15.8823 17.311 15.5332Z" fill="#1E2352" stroke="#1E2352" stroke-width="0.5" stroke-linecap="round" stroke-linejoin="round"/>
<path fill-rule="evenodd" clip-rule="evenodd" d="M10 13.7796C10 11.6923 11.6914 10 13.779 10C15.8665 10 17.558 11.6915 17.558 13.779C17.558 14.0524 17.5297 14.3224 17.4697 14.5852C17.3186 15.2857 16.9739 15.9135 16.4931 16.4079C16.2498 16.6582 15.8497 16.6638 15.5995 16.4204C15.3493 16.1771 15.3437 15.7771 15.587 15.5268C15.9064 15.1983 16.1351 14.7813 16.2348 14.3158C16.2355 14.3127 16.2362 14.3096 16.2369 14.3065C16.2746 14.1424 16.2941 13.9665 16.2941 13.779C16.2941 12.3895 15.1684 11.2639 13.779 11.2639C12.3897 11.2639 11.2639 12.39 11.2639 13.7796C11.2639 15.1691 12.3895 16.2947 13.779 16.2947C13.9924 16.2947 14.198 16.2685 14.3975 16.2191C14.7363 16.1352 15.0789 16.3419 15.1628 16.6807C15.2466 17.0195 15.0399 17.3621 14.7011 17.4459C14.4052 17.5192 14.0977 17.5586 13.779 17.5586C11.6915 17.5586 10 15.8671 10 13.7796Z" fill="#1E2352" stroke="#1E2352" stroke-width="0.5" stroke-linecap="round" stroke-linejoin="round"/>
<path fill-rule="evenodd" clip-rule="evenodd" d="M33.9904 10.5018C34.0765 10.8401 33.8722 11.1841 33.534 11.2702L30.0154 12.1666L22.7495 19.9771C22.5118 20.2326 22.112 20.2471 21.8564 20.0094C21.6009 19.7717 21.5864 19.3718 21.8242 19.1163L29.2166 11.1696C29.2992 11.0808 29.4057 11.0176 29.5233 10.9877L33.222 10.0455C33.5602 9.95931 33.9042 10.1636 33.9904 10.5018Z" fill="#1E2352" stroke="#1E2352" stroke-width="0.5" stroke-linecap="round" stroke-linejoin="round"/>
</svg>
