<svg width="44" height="44" viewBox="0 0 44 44" fill="none" xmlns="http://www.w3.org/2000/svg">
<path d="M13.7964 21.3553V20.7469" stroke="#1E2352" stroke-width="1.8" stroke-linecap="round" stroke-linejoin="round"/>
<path d="M32.9413 22.4448C34.2034 20.7552 34.8652 22.7655 35.634 21.6761C36.1766 20.9073 36.3698 18.5394 34.3678 19.7727" stroke="#1E2352" stroke-width="1.8" stroke-linecap="round" stroke-linejoin="round"/>
<path d="M25.6731 15.2416C29.9403 16.4503 32.9577 19.4102 32.9577 22.8757C32.9577 25.034 31.7861 26.9867 29.8663 28.4625L29.3647 32.3803C29.3467 32.5271 29.2759 32.6623 29.1654 32.7607C29.0549 32.8591 28.9124 32.9138 28.7645 32.9147H27.7286C27.6188 32.9144 27.5112 32.8844 27.4172 32.828C27.3231 32.7715 27.246 32.6907 27.1941 32.594L26.0061 30.3947C24.6443 30.8528 23.2167 31.0847 21.78 31.0812C20.5041 31.0831 19.2345 30.9018 18.0102 30.5427L17.0524 32.5776C17.0028 32.6818 16.9248 32.7699 16.8273 32.8318C16.7299 32.8936 16.6169 32.9266 16.5015 32.927H15.2148C15.0713 32.9249 14.9333 32.8722 14.825 32.7781C14.7167 32.6841 14.6451 32.5548 14.6228 32.4132L14.1295 29.667C12.5632 29.0915 10.6968 27.9075 9.84171 26.8305L8.60843 26.222C8 24.9887 8 23.85 8 22.1604L10.1254 21.3094C10.4002 20.4813 10.8361 19.7157 11.408 19.0566L9.97327 14.6825C12.1439 14.3948 14.6885 14.9662 15.9054 16.7915" stroke="#1E2352" stroke-width="1.8" stroke-linecap="round" stroke-linejoin="round"/>
<path d="M15.1777 15.9537C15.8069 15.6676 16.4569 15.4299 17.1222 15.2425" stroke="#1E2352" stroke-width="1.8" stroke-linecap="round" stroke-linejoin="round"/>
<path d="M24.4397 17.0962C23.4758 16.6945 22.4418 16.4877 21.3976 16.4877C20.3533 16.4877 19.3194 16.6945 18.3555 17.0962" stroke="#1E2352" stroke-width="1.8" stroke-linecap="round" stroke-linejoin="round"/>
<path d="M23.3668 14.8638C23.6689 14.4527 23.8317 13.9557 23.8314 13.4455C23.8332 13.061 23.7439 12.6815 23.5708 12.3381C23.3977 11.9947 23.1457 11.6973 22.8354 11.4701C22.5252 11.2429 22.1655 11.0925 21.7859 11.0312C21.4063 10.9698 21.0175 10.9993 20.6515 11.1172C20.2855 11.2351 19.9526 11.4381 19.6802 11.7095C19.4077 11.9809 19.2035 12.3129 19.0841 12.6785C18.9648 13.0441 18.9338 13.4327 18.9937 13.8125C19.0535 14.1924 19.2025 14.5526 19.4285 14.8638" stroke="#1E2352" stroke-width="1.8" stroke-linecap="round" stroke-linejoin="round"/>
</svg>
