<svg width="44" height="44" viewBox="0 0 44 44" fill="none" xmlns="http://www.w3.org/2000/svg">
<g clip-path="url(#clip0_11_1553)">
<path d="M14.2077 26.7465C16.5496 29.2321 19.1636 31.4451 22 33.3436C22 33.3436 34 25.5823 34 18.4031C33.9807 16.9958 33.5057 15.6328 32.6467 14.5197C31.7876 13.4065 30.5909 12.6033 29.237 12.2311C27.883 11.8589 26.4451 11.9379 25.1398 12.4562C23.8345 12.9744 22.7326 13.9039 22 15.1045C21.2674 13.9039 20.1655 12.9744 18.8602 12.4562C17.5549 11.9379 16.117 11.8589 14.763 12.2311C13.4091 12.6033 12.2124 13.4065 11.3533 14.5197C10.4943 15.6328 10.0193 16.9958 10 18.4031C10 20.4249 10.9523 22.4894 12.3226 24.4181" stroke="#1E2352" stroke-width="1.8" stroke-linecap="round" stroke-linejoin="round"/>
<path d="M10 24.4181H15.8065L16.9677 22.4778L18.9032 26.3585L22 18.209L24.3226 24.4181H27.4194" stroke="#1E2352" stroke-width="1.8" stroke-linecap="round" stroke-linejoin="round"/>
</g>
<defs>
<clipPath id="clip0_11_1553">
<rect width="44" height="44" rx="8" fill="white"/>
</clipPath>
</defs>
</svg>
