<svg width="44" height="44" viewBox="0 0 44 44" fill="none" xmlns="http://www.w3.org/2000/svg">
<g clip-path="url(#clip0_11_1628)">
<path d="M22.1333 12.8364V17.6727H26.25C28.525 17.6727 30.3666 15.5091 30.3666 12.8364C30.3666 10.1636 28.525 8 26.25 8C23.975 8 22.1333 10.1636 22.1333 12.8364ZM22.5666 16.4C22.5666 14.0073 24.0443 12.0269 25.9856 11.64C26.0116 11.864 26.0333 12.0931 26.0333 12.3273C26.0333 14.7353 24.5296 16.7309 22.5666 17.0975V16.4Z" fill="#FFBD12"/>
<path d="M26.0333 12.3273C26.0333 12.0931 26.016 11.864 25.9857 11.64C26.211 11.5942 26.445 11.5637 26.6833 11.5637C28.2043 11.5637 29.5347 12.536 30.2453 13.9818C29.8077 16.0997 28.187 17.6728 26.25 17.6728H22.5667V17.0975C24.5297 16.7309 26.0333 14.7353 26.0333 12.3273Z" fill="#FFBD12"/>
<path d="M18.0167 8C15.7417 8 13.9 10.1636 13.9 12.8364C13.9 15.5091 15.7417 17.6727 18.0167 17.6727H22.1334V12.8364C22.1334 10.1636 20.2917 8 18.0167 8ZM21.7 17.0975C19.737 16.7309 18.2334 14.7353 18.2334 12.3273C18.2334 12.0931 18.2507 11.864 18.281 11.64C20.2224 12.032 21.7 14.0124 21.7 16.4V17.0975Z" fill="#FFBD12"/>
<path d="M18.2334 12.3273C18.2334 12.0931 18.2507 11.864 18.281 11.64C18.0557 11.5942 17.8217 11.5637 17.5834 11.5637C16.0624 11.5637 14.732 12.536 14.0214 13.9818C14.459 16.0997 16.0797 17.6728 18.0167 17.6728H21.7V17.0975C19.737 16.7309 18.2334 14.7353 18.2334 12.3273Z" fill="#FFBD12"/>
<path d="M32.5333 23.7818H11.7333V36H32.5333V23.7818Z" fill="#1E2352"/>
<path d="M24.7333 23.7818H34.2667V18.6909C34.2667 18.1309 33.8767 17.6727 33.4 17.6727H10.8667C10.39 17.6727 10 18.1309 10 18.6909V23.7818H19.5333" fill="#1E2352"/>
<path d="M32.5333 23.7818H11.7333V25.8182H32.5333V23.7818Z" fill="#1E2352"/>
<path d="M23.8667 17.6727H20.4V36H23.8667V17.6727Z" fill="#FFBD12"/>
<path d="M24.7333 17.1637C24.7333 16.7666 24.6683 16.3898 24.547 16.0386C23.9923 16.5833 23.312 16.96 22.5667 17.0975V17.6728H24.7333V17.1637Z" fill="#FFBD12"/>
<path d="M23 16.9854C22.857 17.0313 22.714 17.072 22.5666 17.0974V16.4C22.5666 15.6262 22.7226 14.8931 23 14.2465V12.8364C23 12.0371 22.8613 11.2684 22.6143 10.576C22.311 11.2531 22.1333 12.0218 22.1333 12.8364V17.6727H23V16.9854Z" fill="#FFBD12"/>
<path d="M23.8667 17.6727C23.8667 16.5476 23.091 15.6364 22.1334 15.6364C21.1757 15.6364 20.4 16.5476 20.4 17.6727H23.8667Z" fill="#FFBD12"/>
<path d="M23.8667 17.6727H20.4V23.7818H23.8667V17.6727Z" fill="#FFBD12"/>
</g>
<defs>
<clipPath id="clip0_11_1628">
<rect width="24.2667" height="28" fill="white" transform="translate(10 8)"/>
</clipPath>
</defs>
</svg>
