<svg width="44" height="44" viewBox="0 0 44 44" fill="none" xmlns="http://www.w3.org/2000/svg">
<g clip-path="url(#clip0_11_1522)">
<path d="M12.4083 35.7586C11.2166 35.7586 10.2483 34.8173 10.2483 33.6586V10.3414C10.2483 9.18277 11.2166 8.24139 12.4083 8.24139H26.0489C27.1116 8.24139 28.0302 9.01381 28.1841 10.0373L28.2239 10.2883L32.2907 11.3455C32.8469 11.4904 33.3136 11.8379 33.6017 12.3255C33.8897 12.8131 33.9691 13.3779 33.8201 13.9186L28.2288 34.1993C27.9806 35.0973 27.1712 35.72 26.2128 35.749H26.1979C26.1433 35.749 26.0936 35.7538 26.0489 35.7538H12.4083V35.7586ZM12.4083 9.12484C11.7181 9.12484 11.157 9.67036 11.157 10.3414V33.6586C11.157 34.3297 11.7181 34.8752 12.4083 34.8752H26.0489C26.7392 34.8752 27.3003 34.3297 27.3003 33.6586V10.4524C27.3003 9.75726 26.7044 9.12484 26.0489 9.12484H12.4083ZM28.209 30.8586L32.9412 13.6917C33.0256 13.3779 32.9809 13.0497 32.8171 12.7697C32.6483 12.4897 32.3801 12.2869 32.0573 12.2048L28.209 11.2007V30.8586Z" fill="#1E2352" stroke="#1E2352" stroke-miterlimit="10"/>
<path d="M19.2262 27.7448C19.0623 27.7448 18.9133 27.6579 18.8339 27.5228L17.4087 25.1186H14.5535C14.3946 25.1186 14.2407 25.0366 14.1612 24.9014C14.0768 24.7469 14.0768 24.5538 14.1612 24.3993L15.5715 22.0242L14.1612 19.649C14.0768 19.4945 14.0768 19.3014 14.1612 19.1469C14.2407 19.0117 14.3946 18.9297 14.5535 18.9297H17.4087L18.8339 16.5255C18.9133 16.3904 19.0673 16.3035 19.2262 16.3035C19.3851 16.3035 19.539 16.3904 19.6184 16.5255L21.0436 18.9297H23.8988C24.0577 18.9297 24.2116 19.0117 24.2911 19.1469C24.3755 19.3014 24.3755 19.4945 24.2911 19.649L22.8809 22.0242L24.2911 24.3993C24.3755 24.5538 24.3755 24.7469 24.2911 24.9014C24.2116 25.0366 24.0577 25.1186 23.8988 25.1186H21.0436L19.6184 27.5228C19.539 27.6579 19.3851 27.7448 19.2262 27.7448ZM15.3728 24.1821H17.6719C17.8358 24.1821 17.9847 24.269 18.0642 24.4042L19.2311 26.3642L20.398 24.4042C20.4775 24.269 20.6314 24.1821 20.7903 24.1821H23.0894L21.9573 22.28C21.8728 22.1255 21.8728 21.9276 21.9573 21.7779L23.0894 19.8759H20.7903C20.6265 19.8759 20.4775 19.789 20.398 19.6538L19.2311 17.6938L18.0642 19.6538C17.9847 19.789 17.8308 19.8759 17.6719 19.8759H15.3728L16.505 21.7779C16.5894 21.9324 16.5894 22.1304 16.505 22.28L15.3728 24.1821Z" fill="#1E2352" stroke="#1E2352" stroke-miterlimit="10"/>
<path d="M24.3456 14.6524C24.0973 14.6524 23.8888 14.4545 23.8888 14.2083V12.4414H22.0713C21.8231 12.4414 21.6145 12.2434 21.6145 11.9972C21.6145 11.751 21.8181 11.5531 22.0713 11.5531H24.3456C24.5939 11.5531 24.8024 11.751 24.8024 11.9972V14.2083C24.8024 14.4497 24.5988 14.6524 24.3456 14.6524Z" fill="#1E2352" stroke="#1E2352" stroke-miterlimit="10"/>
<path d="M14.1116 14.6524C13.8633 14.6524 13.6548 14.4545 13.6548 14.2083V11.9972C13.6548 11.7559 13.8584 11.5531 14.1116 11.5531H16.3859C16.6342 11.5531 16.8427 11.751 16.8427 11.9972C16.8427 12.2434 16.6391 12.4414 16.3859 12.4414H14.5685V14.2083C14.5685 14.4497 14.3649 14.6524 14.1116 14.6524Z" fill="#1E2352" stroke="#1E2352" stroke-miterlimit="10"/>
<path d="M22.0713 32.4421C21.8231 32.4421 21.6145 32.2442 21.6145 31.9979C21.6145 31.7517 21.8181 31.5538 22.0713 31.5538H23.8888V29.7869C23.8888 29.5455 24.0924 29.3428 24.3456 29.3428C24.5988 29.3428 24.8024 29.5407 24.8024 29.7869V31.9979C24.8024 32.2393 24.5988 32.4421 24.3456 32.4421H22.0713Z" fill="#1E2352" stroke="#1E2352" stroke-miterlimit="10"/>
<path d="M14.1116 32.4421C13.8633 32.4421 13.6548 32.2442 13.6548 31.9979V29.7869C13.6548 29.5455 13.8584 29.3428 14.1116 29.3428C14.3649 29.3428 14.5685 29.5407 14.5685 29.7869V31.5538H16.3859C16.6342 31.5538 16.8427 31.7517 16.8427 31.9979C16.8427 32.2442 16.6391 32.4421 16.3859 32.4421H14.1116Z" fill="#1E2352" stroke="#1E2352" stroke-miterlimit="10"/>
</g>
<defs>
<clipPath id="clip0_11_1522">
<rect width="24.1379" height="28" fill="white" transform="translate(10 8)"/>
</clipPath>
</defs>
</svg>
