<svg width="44" height="44" viewBox="0 0 44 44" fill="none" xmlns="http://www.w3.org/2000/svg">
<g clip-path="url(#clip0_11_1598)">
<path d="M21.9979 29.1399C18.0604 29.1399 14.8558 25.9353 14.8558 21.9979C14.8558 18.0604 18.0604 14.8558 21.9979 14.8558C25.9353 14.8558 29.1399 18.0604 29.1399 21.9979C29.1399 25.9353 25.9353 29.1399 21.9979 29.1399ZM25.7141 17.9C25.7662 18.1471 25.7878 18.3987 25.7878 18.6545C25.7878 20.7446 24.088 22.4488 21.9935 22.4488C20.3934 22.4488 19.0925 23.7497 19.0925 25.3499C19.0925 26.95 20.3934 28.2509 21.9935 28.2509C25.4409 28.2509 28.2422 25.4496 28.2422 22.0022C28.2422 20.3153 27.5788 18.7326 26.3689 17.5444L25.4583 16.6511L25.7098 17.9H25.7141ZM21.9979 15.7535C18.5504 15.7535 15.7491 18.5548 15.7491 22.0022C15.7491 23.689 16.4126 25.2718 17.6224 26.46L18.5331 27.3533L18.2816 26.1044C18.2295 25.8572 18.2079 25.6057 18.2079 25.3499C18.2079 23.2597 19.9077 21.5555 22.0022 21.5555C23.6023 21.5555 24.9032 20.2546 24.9032 18.6545C24.9032 17.0544 23.6023 15.7535 22.0022 15.7535H21.9979Z" fill="#1E2352" stroke="#1E2352" stroke-width="0.8" stroke-miterlimit="10"/>
<path d="M21.9978 19.1011C22.2445 19.1011 22.4444 18.9011 22.4444 18.6545C22.4444 18.4078 22.2445 18.2078 21.9978 18.2078C21.7511 18.2078 21.5511 18.4078 21.5511 18.6545C21.5511 18.9011 21.7511 19.1011 21.9978 19.1011Z" fill="#1E2352" stroke="#1E2352" stroke-width="0.8" stroke-miterlimit="10"/>
<path d="M21.9978 25.7922C22.2445 25.7922 22.4444 25.5922 22.4444 25.3455C22.4444 25.0988 22.2445 24.8989 21.9978 24.8989C21.7511 24.8989 21.5511 25.0988 21.5511 25.3455C21.5511 25.5922 21.7511 25.7922 21.9978 25.7922Z" fill="#1E2352" stroke="#1E2352" stroke-width="0.8" stroke-miterlimit="10"/>
<path d="M16.4299 35.8916C16.3128 35.8916 16.2001 35.8439 16.1134 35.7615L8.23849 27.8823C8.1561 27.7999 8.1084 27.6871 8.1084 27.5657V16.4256C8.1084 16.3085 8.1561 16.1957 8.23849 16.109L16.1134 8.23849C16.1957 8.1561 16.3085 8.1084 16.4299 8.1084H27.5701C27.6872 8.1084 27.8042 8.1561 27.8866 8.23849L35.7615 16.1134C35.8439 16.1957 35.8916 16.3085 35.8916 16.4299V27.5701C35.8916 27.6872 35.8439 27.8042 35.7615 27.8866L27.8866 35.7615C27.8042 35.8439 27.6872 35.8916 27.5701 35.8916H16.4299ZM17.076 34.9983H26.9239L25.7271 31.811L25.3672 31.9325C24.2831 32.3011 23.1513 32.4875 21.9978 32.4875C20.8443 32.4875 19.7125 32.3011 18.6285 31.9325L18.2685 31.811L17.0717 34.9983H17.076ZM31.295 26.8546C30.2933 28.7626 28.7582 30.2977 26.8546 31.295L26.551 31.4555L27.7479 34.6384L34.6427 27.7435L31.4598 26.5467L31.2994 26.8502L31.295 26.8546ZM9.36161 27.7435L16.2565 34.6384L17.4533 31.4555L17.1497 31.295C15.2417 30.2933 13.7067 28.7582 12.7093 26.8546L12.5489 26.551L9.36595 27.7479L9.36161 27.7435ZM21.9978 12.4058C16.7074 12.4058 12.4014 16.7118 12.4014 22.0022C12.4014 27.2925 16.7074 31.5986 21.9978 31.5986C27.2882 31.5986 31.5942 27.2925 31.5942 22.0022C31.5942 16.7118 27.2882 12.4058 21.9978 12.4058ZM31.8067 18.2729L31.9281 18.6328C32.2967 19.7169 32.4832 20.8487 32.4832 22.0022C32.4832 23.1556 32.2967 24.2874 31.9281 25.3715L31.8067 25.7314L34.9939 26.9283V17.0804L31.8067 18.2772V18.2729ZM9.00169 26.9239L12.1889 25.7271L12.0675 25.3672C11.6989 24.2831 11.5125 23.1513 11.5125 21.9978C11.5125 20.8443 11.6989 19.7125 12.0675 18.6285L12.1889 18.2685L9.00169 17.0717V26.9196V26.9239ZM26.5467 12.5445L26.8502 12.705C28.7582 13.7067 30.2933 15.2417 31.2907 17.1454L31.4511 17.449L34.634 16.2521L27.7392 9.35728L26.5423 12.5402L26.5467 12.5445ZM9.36161 16.2565L12.5445 17.4533L12.705 17.1497C13.7067 15.2417 15.2417 13.7067 17.1454 12.7093L17.449 12.5489L16.2521 9.36595L9.36161 16.2565ZM22.0022 11.5125C23.1556 11.5125 24.2874 11.6989 25.3715 12.0675L25.7314 12.1889L26.9283 9.00169H17.0804L18.2772 12.1889L18.6371 12.0675C19.7212 11.6989 20.853 11.5125 22.0065 11.5125H22.0022Z" fill="#1E2352" stroke="#1E2352" stroke-width="0.8" stroke-miterlimit="10"/>
</g>
<defs>
<clipPath id="clip0_11_1598">
<rect width="28" height="28" fill="white" transform="translate(8 8)"/>
</clipPath>
</defs>
</svg>
