<svg width="44" height="44" viewBox="0 0 44 44" fill="none" xmlns="http://www.w3.org/2000/svg">
<path d="M30.8132 27.7704H13.0856V30.8988H30.8132V27.7704Z" stroke="#1E2352" stroke-width="1.5" stroke-linecap="round" stroke-linejoin="round"/>
<path d="M31.856 30.8988H12.0428L11 35.07H32.8988L31.856 30.8988Z" stroke="#1E2352" stroke-width="1.5" stroke-linecap="round" stroke-linejoin="round"/>
<path d="M14.2934 27.7704H29.6054C31.6354 25.7828 32.8988 23.015 32.8988 19.9494C32.8988 13.9012 27.9976 9 21.9494 9C15.9012 9 11 13.9012 11 19.9494C11 23.015 12.2644 25.7828 14.2934 27.7704Z" stroke="#1E2352" stroke-width="1.5" stroke-linecap="round" stroke-linejoin="round"/>
<path d="M22.0667 27.7183C22.0265 27.7183 21.9864 27.7183 21.9462 27.7167C20.7283 27.6855 19.5707 27.1797 18.7204 26.3071C17.87 25.4346 17.3942 24.2644 17.3944 23.046C17.3944 20.7737 19.0994 18.777 21.3482 18.43C22.776 18.2097 24.0897 18.1829 25.2162 17.1526C25.6939 16.7137 26.0757 16.1806 26.3373 15.5869C26.599 14.9932 26.7349 14.3518 26.7366 13.703C26.7366 11.1677 24.7172 9.1035 22.1983 9.03363" stroke="#1E2352" stroke-width="1.5" stroke-linecap="round" stroke-linejoin="round"/>
<path d="M23.7595 13.9311C23.7595 14.3805 23.5809 14.8116 23.2631 15.1293C22.9453 15.4471 22.5143 15.6257 22.0649 15.6257C21.6155 15.6257 21.1845 15.4471 20.8667 15.1293C20.5489 14.8116 20.3704 14.3805 20.3704 13.9311C20.3704 13.4817 20.5489 13.0507 20.8667 12.7329C21.1845 12.4151 21.6155 12.2366 22.0649 12.2366C22.5143 12.2366 22.9453 12.4151 23.2631 12.7329C23.5809 13.0507 23.7595 13.4817 23.7595 13.9311Z" stroke="#1E2352" stroke-width="1.5" stroke-linecap="round" stroke-linejoin="round"/>
<path d="M23.7595 23.5353C23.7595 23.9847 23.5809 24.4157 23.2631 24.7335C22.9453 25.0513 22.5143 25.2299 22.0649 25.2299C21.6155 25.2299 21.1845 25.0513 20.8667 24.7335C20.5489 24.4157 20.3704 23.9847 20.3704 23.5353C20.3704 23.0859 20.5489 22.6549 20.8667 22.3371C21.1845 22.0193 21.6155 21.8408 22.0649 21.8408C22.5143 21.8408 22.9453 22.0193 23.2631 22.3371C23.5809 22.6549 23.7595 23.0859 23.7595 23.5353Z" stroke="#1E2352" stroke-width="1.5" stroke-linecap="round" stroke-linejoin="round"/>
</svg>
