<svg width="44" height="44" viewBox="0 0 44 44" fill="none" xmlns="http://www.w3.org/2000/svg">
<path d="M24.8551 35.0022C24.3678 35.0022 23.8781 34.8803 23.4395 34.6493C22.9382 34.3859 22.5162 33.9896 22.2189 33.5029L22 33.1449L21.7811 33.5029C21.4838 33.9887 21.0618 34.3851 20.5613 34.6484C20.1228 34.8794 19.633 35.0013 19.1449 35.0013C18.5841 35.0013 18.0324 34.8428 17.5493 34.5436L17.437 34.4737L17.2115 34.5717C16.7878 34.7558 16.3394 34.8487 15.8777 34.8487C15.3756 34.8487 14.871 34.7328 14.4184 34.5146C14.1516 34.3859 13.9146 34.2078 13.7131 33.9862C13.0491 33.254 12.7154 32.261 12.7972 31.262L12.8178 31.0106L12.7187 30.9219C11.906 30.1923 11.522 29.0996 11.6913 27.9983C11.7797 27.4255 12.0142 26.8885 12.371 26.4462L12.6328 26.1206L12.2356 26.0157C11.6954 25.8742 11.2007 25.5819 10.8026 25.1719C10.0387 24.3834 9.72652 23.266 9.9685 22.1826L9.99823 22.0505L9.83801 21.8596C9.20125 21.0993 8.90641 20.0926 9.02617 19.0979C9.0625 18.7962 9.15335 18.5081 9.2954 18.2422C9.76533 17.3642 10.5772 16.7301 11.5228 16.5008L11.7607 16.4428L11.8119 16.3184C12.2331 15.2956 13.1217 14.5804 14.1888 14.4065C14.3515 14.3801 14.5175 14.3665 14.681 14.3665C15.0766 14.3665 15.4623 14.4432 15.829 14.5941L16.2097 14.7509L16.1833 14.329C16.1469 13.7553 16.2626 13.1791 16.5178 12.6617C17.0083 11.6679 17.9416 11.0167 19.0144 10.9195L19.1457 10.9076L19.2721 10.6919C19.7751 9.83446 20.6109 9.23355 21.5648 9.04347C21.7085 9.01449 21.8555 9 22.0008 9C22.1462 9 22.2924 9.01449 22.4369 9.04347C23.3908 9.23355 24.2266 9.83446 24.7296 10.6919L24.8559 10.9076L24.9864 10.9195C26.0592 11.0167 26.9925 11.6679 27.4831 12.6617C27.7383 13.1791 27.8539 13.7553 27.8175 14.3298L27.7911 14.7517L28.1718 14.5949C28.5377 14.444 28.9242 14.3682 29.319 14.3682C29.4825 14.3682 29.6485 14.3818 29.8112 14.4082C30.8783 14.583 31.7669 15.2973 32.1881 16.3209L32.2393 16.4454L32.4772 16.5033C33.4228 16.7318 34.2347 17.3668 34.7046 18.2447C34.8466 18.5107 34.9375 18.7988 34.9738 19.1005C35.0936 20.0952 34.7987 21.101 34.1636 21.8604L34.0042 22.0514L34.034 22.1835C34.276 23.2668 33.9638 24.3843 33.1998 25.1727C32.8018 25.5836 32.3062 25.8751 31.7661 26.0166L31.3688 26.1206L31.6306 26.4462C31.9866 26.8885 32.2212 27.4247 32.3095 27.9975C32.4788 29.0987 32.0948 30.1923 31.2821 30.9219L31.183 31.0106L31.2037 31.262C31.2854 32.261 30.9509 33.254 30.2878 33.9862C30.0862 34.2078 29.8492 34.3859 29.5825 34.5155C29.1299 34.7345 28.6252 34.8496 28.1231 34.8496C27.6614 34.8496 27.213 34.7567 26.7893 34.5726L26.5638 34.4746L26.4515 34.5445C25.9684 34.8445 25.4159 35.0022 24.8551 35.0022ZM23.5692 26.0507C23.2281 26.2365 22.8622 26.3601 22.4815 26.4163L22.2593 26.4496C22.2593 26.4496 22.2593 31.7734 22.2593 31.8246C22.2742 32.8389 22.8028 33.7151 23.6749 34.1737C24.0523 34.3723 24.4512 34.4729 24.86 34.4729C25.401 34.4729 25.9263 34.2939 26.378 33.9546C26.4226 33.9214 26.4755 33.9035 26.53 33.9035C26.5647 33.9035 26.5985 33.9103 26.6307 33.9248L26.99 34.0808C27.3501 34.2368 27.7316 34.316 28.1231 34.316C28.5493 34.316 28.9779 34.218 29.3628 34.0322C29.5692 33.9325 29.7534 33.7944 29.9095 33.6222C30.4736 33 30.7569 32.157 30.6875 31.308L30.6545 30.9074C30.647 30.8145 30.6875 30.7233 30.7602 30.6688C31.5654 30.0644 31.9536 29.0979 31.7983 28.0827C31.6447 27.0846 31.0005 26.2944 30.0747 25.9688L25.1185 24.3067L25.0194 24.5139C24.8493 24.8684 24.623 25.1898 24.3463 25.4668L24.1853 25.6279L25.6273 27.6761C25.7115 27.7954 25.6859 27.9625 25.5703 28.0495C25.5257 28.0827 25.4737 28.1006 25.4183 28.1006C25.3341 28.1006 25.2573 28.0605 25.2086 27.9906L23.7674 25.9433L23.5692 26.0515V26.0507ZM17.4692 33.9018C17.5245 33.9018 17.5774 33.9197 17.6212 33.9529C18.0737 34.2922 18.5982 34.4711 19.1391 34.4711C19.5488 34.4711 19.9477 34.3706 20.3243 34.172C21.1956 33.7134 21.725 32.838 21.7398 31.8288V26.4487L21.5177 26.4155C21.1369 26.3592 20.7719 26.2356 20.4316 26.0498L20.2334 25.9416L18.7923 27.9889C18.7427 28.0588 18.6667 28.0989 18.5825 28.0989C18.528 28.0989 18.4751 28.081 18.4305 28.0477C18.3149 27.9608 18.2893 27.7937 18.3735 27.6744L19.8155 25.6262L19.6545 25.4651C19.3778 25.1872 19.1507 24.8659 18.9806 24.5104L18.8815 24.3033L18.6684 24.3749C18.6213 24.3903 13.979 25.9475 13.9303 25.9637C12.9987 26.291 12.3545 27.0812 12.2009 28.0793C12.0448 29.0944 12.4329 30.061 13.239 30.6654C13.3117 30.7199 13.3522 30.8111 13.3447 30.904L13.3117 31.3046C13.2423 32.1536 13.5264 32.9966 14.0897 33.6188C14.2458 33.791 14.4299 33.9291 14.6364 34.0288C15.0213 34.2146 15.4499 34.3126 15.8761 34.3126C16.2675 34.3126 16.6491 34.2333 17.0092 34.0774L17.3684 33.9214C17.4006 33.9077 17.4345 33.9009 17.4692 33.9009V33.9018ZM22.0008 20.0372C20.43 20.0372 19.1523 21.3558 19.1523 22.977C19.1523 24.5982 20.43 25.9168 22.0008 25.9168C23.5717 25.9168 24.8493 24.5982 24.8493 22.977C24.8493 21.3558 23.5717 20.0372 22.0008 20.0372ZM27.531 20.8555C27.6433 20.8555 27.7424 20.9297 27.7771 21.0405C27.8208 21.1803 27.7465 21.332 27.6111 21.3772L25.2796 22.1588L25.3176 22.3872C25.3506 22.585 25.3671 22.7836 25.3671 22.9779C25.3671 23.1722 25.3506 23.3708 25.3176 23.5686L25.2796 23.797L25.4927 23.8686C25.5397 23.8848 30.1862 25.4421 30.2324 25.4583C30.4942 25.5418 30.7569 25.5836 31.0187 25.5836C31.6967 25.5836 32.3417 25.304 32.8348 24.7951C33.5393 24.0681 33.7755 23.0512 33.4682 22.0735C33.4402 21.9849 33.46 21.8869 33.5186 21.8161L33.773 21.5118C34.3123 20.8674 34.5634 20.0125 34.461 19.1678C34.4329 18.9343 34.3627 18.711 34.252 18.5047C33.8531 17.7589 33.1635 17.2202 32.3599 17.0258L31.98 16.9338C31.8925 16.9125 31.8206 16.8443 31.7925 16.7565C31.4845 15.7788 30.7139 15.0995 29.7303 14.9393C29.5899 14.9162 29.447 14.9043 29.3066 14.9043C28.4948 14.9043 27.7449 15.2947 27.2502 15.9766L24.1853 20.3305L24.3455 20.4916C24.6222 20.7694 24.8485 21.0908 25.0186 21.4453L25.1177 21.6525L27.4492 20.8709C27.4756 20.8623 27.502 20.8581 27.5293 20.8581L27.531 20.8555ZM14.6934 14.9001C14.553 14.9001 14.4109 14.912 14.2705 14.935C13.2869 15.0961 12.5155 15.7754 12.2083 16.7531C12.1802 16.8417 12.1084 16.9099 12.0208 16.9304L11.6409 17.0224C10.8373 17.2168 10.1477 17.7555 9.74882 18.5013C9.63815 18.7076 9.56795 18.9309 9.53987 19.1644C9.43828 20.01 9.68935 20.864 10.2287 21.5084L10.483 21.8127C10.5417 21.8835 10.5615 21.9815 10.5334 22.0701C10.2254 23.0478 10.4624 24.0655 11.1669 24.7917C11.6599 25.2997 12.3041 25.5802 12.983 25.5802C13.2448 25.5802 13.5074 25.5384 13.7643 25.4566L18.7212 23.7945L18.6832 23.5669C18.6502 23.3691 18.6337 23.1705 18.6337 22.977C18.6337 22.7836 18.6502 22.585 18.6832 22.3864L18.7212 22.1588L16.3898 21.3772C16.2543 21.332 16.1792 21.1803 16.2238 21.0405C16.2584 20.9297 16.3575 20.8555 16.4699 20.8555C16.4971 20.8555 16.5236 20.8598 16.55 20.8691L18.8815 21.6508L18.9806 21.4436C19.1507 21.0882 19.3778 20.7669 19.6545 20.489L19.8155 20.3279C19.8155 20.3279 16.7821 16.0192 16.7531 15.9774C16.2551 15.2921 15.5061 14.9009 14.6934 14.9009V14.9001ZM22.0008 16.7079C22.1437 16.7079 22.2602 16.8281 22.2602 16.9756V19.5054L22.4823 19.5386C22.863 19.5949 23.2289 19.7185 23.57 19.9043L23.7682 20.0125L23.9004 19.825C23.9293 19.7841 26.7992 15.7064 26.8298 15.6638C27.3955 14.8344 27.4665 13.8048 27.023 12.9047C26.5713 11.9892 25.7066 11.442 24.7106 11.442C24.6205 11.442 24.5355 11.3926 24.4892 11.3133L24.2877 10.969C23.8607 10.2402 23.1505 9.72962 22.3403 9.56853C22.2288 9.54636 22.1148 9.53528 22.0025 9.53528C21.8902 9.53528 21.7762 9.54636 21.6647 9.56853C20.8545 9.72962 20.1442 10.2402 19.7173 10.969L19.5157 11.3133C19.4695 11.3926 19.3844 11.442 19.2944 11.442C18.2984 11.442 17.4337 11.9892 16.9819 12.9047C16.5376 13.8039 16.6086 14.8336 17.1719 15.6587L20.2367 20.0117L20.4349 19.9034C20.7752 19.7176 21.1411 19.5949 21.521 19.5386L21.7431 19.5054V16.9756C21.7431 16.8281 21.8596 16.7079 22.0025 16.7079H22.0008Z" fill="black" stroke="#1E2352" stroke-width="1.1"/>
<path d="M21.9996 24.3136C21.2852 24.3136 20.7046 23.7144 20.7046 22.9771C20.7046 22.2398 21.2852 21.6406 21.9996 21.6406C22.714 21.6406 23.2946 22.2398 23.2946 22.9771C23.2946 23.7144 22.714 24.3136 21.9996 24.3136ZM21.9996 22.175C21.5709 22.175 21.2224 22.5347 21.2224 22.9771C21.2224 23.4194 21.5709 23.7791 21.9996 23.7791C22.4282 23.7791 22.7767 23.4194 22.7767 22.9771C22.7767 22.5347 22.4282 22.175 21.9996 22.175Z" fill="black" stroke="#1E2352" stroke-width="1.1"/>
</svg>
