<svg width="44" height="44" viewBox="0 0 44 44" fill="none" xmlns="http://www.w3.org/2000/svg">
<path d="M35.3918 22.5215V34.1834H8.6084V22.5215" stroke="#1E2352" stroke-width="1.8" stroke-linecap="round" stroke-linejoin="round"/>
<path d="M14.6959 24.9747H13.4697C10.4476 24.9747 8 22.9742 8 20.0685V12.7044H36V20.0685C36 22.9888 33.5428 24.9747 30.5207 24.9747H29.3041" stroke="#1E2352" stroke-width="1.8" stroke-linecap="round" stroke-linejoin="round"/>
<path d="M26.2628 24.973H17.7373" stroke="#1E2352" stroke-width="1.8" stroke-linecap="round" stroke-linejoin="round"/>
<path d="M25.6543 11.4531V10.8398C25.653 10.3514 25.4597 9.88347 25.1167 9.53858C24.7737 9.19368 24.309 9 23.8246 9H19.586C19.1016 9 18.6369 9.19368 18.2939 9.53858C17.951 9.88347 17.7576 10.3514 17.7563 10.8398V11.4531" stroke="#1E2352" stroke-width="1.8" stroke-miterlimit="10"/>
<path d="M17.7374 23.1348H14.696V26.8193H17.7374V23.1348Z" stroke="#1E2352" stroke-width="1.8" stroke-linecap="round" stroke-linejoin="round"/>
<path d="M29.3043 23.1348H26.2629V26.8193H29.3043V23.1348Z" stroke="#1E2352" stroke-width="1.8" stroke-linecap="round" stroke-linejoin="round"/>
</svg>
