<svg width="44" height="44" viewBox="0 0 44 44" fill="none" xmlns="http://www.w3.org/2000/svg">
<g clip-path="url(#clip0_11_1547)">
<path d="M29.0049 16.8325V14.8915C29.0049 11.2197 25.885 8.22833 22.0549 8.22833C18.2249 8.22833 15.1049 11.2151 15.1049 14.8915V16.8325C14.4681 17.1248 13.8725 17.5221 13.3548 18.0062C12.3882 18.9059 11.2336 20.5271 11.2336 23.1257C11.2336 26.3317 12.9929 29.5103 16.3144 32.3282C18.7975 34.4335 21.244 35.5798 21.3448 35.6301C21.5418 35.7214 21.7938 35.7716 22.0549 35.7716C22.3161 35.7716 22.568 35.7214 22.765 35.6301C22.8658 35.5844 25.3123 34.4335 27.7954 32.3282C31.1215 29.5103 32.8762 26.3317 32.8762 23.1257C32.8762 19.9197 31.1627 17.8281 29.0003 16.8325H29.0049ZM15.87 14.8915C15.87 11.6398 18.6418 8.99101 22.0549 8.99101C25.4681 8.99101 28.2398 11.6353 28.2398 14.8915V16.5356C27.8596 16.4169 27.4747 16.3301 27.0853 16.2844C27.0853 16.2844 27.0807 16.2844 27.0761 16.2844C26.957 16.2707 26.8379 16.257 26.7188 16.2525C26.7096 16.2525 26.7005 16.2525 26.6913 16.2525V14.8961C26.6913 12.4391 24.6113 10.4433 22.0503 10.4433C19.4893 10.4433 17.4094 12.4391 17.4094 14.8961V16.2525C17.4094 16.2525 17.3865 16.2525 17.3773 16.2525C17.2628 16.2616 17.1528 16.2707 17.0383 16.2844C17.0291 16.2844 17.02 16.2844 17.0108 16.2844C16.626 16.3347 16.2411 16.4169 15.87 16.5356V14.887V14.8915ZM25.9262 14.8915V16.2525C24.8175 16.3301 23.8233 16.732 23.0857 17.4079C22.6368 17.8189 22.2931 18.3167 22.0549 18.8967C21.8167 18.3213 21.4731 17.8189 21.0241 17.4079C20.2865 16.7366 19.2923 16.3301 18.1836 16.2525V14.8915C18.1836 12.8592 19.92 11.2014 22.0549 11.2014C24.1898 11.2014 25.9262 12.8547 25.9262 14.8915ZM22.4398 34.9359C22.2519 35.0227 21.8533 35.0227 21.6701 34.9359C21.5739 34.8902 11.9987 30.3461 11.9987 23.1257C11.9987 20.9519 13.1258 18.7278 15.1095 17.6545L15.6364 17.4353C16.3282 17.1476 17.0703 16.9969 17.7759 16.9969H17.785C20.653 16.9969 21.6747 19.1388 21.6747 20.9701H22.4398C22.4398 19.1388 23.4568 16.9969 26.3294 16.9969H26.3385C27.0486 16.9969 27.7862 17.1476 28.478 17.4353L29.0049 17.6545C30.9886 18.7278 32.1111 20.9519 32.1111 23.1257C32.1111 30.3461 22.536 34.8902 22.4398 34.9359Z" fill="#1E2352" stroke="#1E2352" stroke-miterlimit="6"/>
<path d="M24.6434 25.4777C24.6434 24.0528 23.4843 22.8974 22.0549 22.8974C20.6255 22.8974 19.4664 24.0528 19.4664 25.4777C19.4664 26.3911 19.9566 27.236 20.7355 27.6973L19.5947 31.0037H24.5106L23.3698 27.6973C24.1486 27.236 24.6388 26.3911 24.6388 25.4777H24.6434ZM22.8704 27.268L22.6184 27.3821L23.6538 30.3872H20.456L21.4914 27.3821L21.2394 27.268C20.5339 26.9483 20.0803 26.245 20.0803 25.4777C20.0803 24.3908 20.9645 23.5094 22.0549 23.5094C23.1453 23.5094 24.0295 24.3908 24.0295 25.4777C24.0295 26.2495 23.5759 26.9529 22.8704 27.268Z" fill="#1E2352" stroke="#1E2352" stroke-miterlimit="6"/>
</g>
<defs>
<clipPath id="clip0_11_1547">
<rect width="22.1053" height="28" fill="white" transform="translate(11 8)"/>
</clipPath>
</defs>
</svg>
