<svg width="44" height="44" viewBox="0 0 44 44" fill="none" xmlns="http://www.w3.org/2000/svg">
<g clip-path="url(#clip0_11_1711)">
<path d="M35.4306 21.1775L30.6359 16.3828C30.5184 16.2653 30.5139 16.0755 30.6268 15.9626C30.9793 15.6056 31.4629 15.3977 31.9961 15.3751C32.4571 15.357 32.8683 15.1808 33.1801 14.8689C33.6185 14.4306 33.8037 13.7979 33.6908 13.093C33.5913 12.4422 33.2479 11.796 32.7237 11.2718C31.6075 10.1556 29.9942 9.95223 29.1265 10.8199C28.8147 11.1317 28.6385 11.5429 28.6204 12.0039C28.6023 12.5326 28.3899 13.0207 28.0329 13.3731C27.9199 13.4861 27.7301 13.4816 27.6126 13.3641L22.8225 8.56488C22.601 8.34345 22.3118 8.22595 22 8.22595C21.6882 8.22595 21.399 8.34797 21.1775 8.56488L16.3286 13.4138C16.3286 13.4138 16.3105 13.4364 16.297 13.4454C15.8812 13.9471 15.9128 14.6746 16.3738 15.1356C16.8935 15.6553 17.603 15.958 18.3667 15.9897C18.5881 15.9987 18.7734 16.0755 18.918 16.2201C19.1394 16.4416 19.2253 16.7805 19.162 17.1782C19.0897 17.6301 18.8457 18.091 18.4616 18.4706C18.082 18.8502 17.621 19.0988 17.1691 19.1711C16.7715 19.2343 16.428 19.144 16.2111 18.9271C16.0665 18.7824 15.9897 18.5972 15.9806 18.3757C15.9535 17.612 15.6462 16.9025 15.1265 16.3828C14.6656 15.9219 13.938 15.8857 13.4364 16.306C13.4274 16.315 13.4138 16.3241 13.4048 16.3376L9.67656 20.0658C9.49128 20.2511 9.49128 20.5539 9.67656 20.7392C9.86184 20.9245 10.1646 20.9245 10.3499 20.7392L14.0691 17.02C14.1866 16.9296 14.3583 16.9432 14.4667 17.0516C14.8192 17.4041 15.0226 17.8832 15.0407 18.4074C15.0587 18.8683 15.235 19.2795 15.5468 19.5913C15.9851 20.0297 16.6178 20.215 17.3228 20.102C17.9735 20.0026 18.6197 19.6591 19.144 19.1349C19.6636 18.6152 20.0071 17.969 20.111 17.3138C20.2195 16.6088 20.0387 15.9761 19.6004 15.5378C19.2886 15.226 18.8773 15.0497 18.4164 15.0316C17.8922 15.0136 17.4086 14.8057 17.0607 14.4577C16.9567 14.3538 16.9432 14.1821 17.029 14.06L21.8509 9.23822C21.9322 9.15688 22.0678 9.15688 22.1491 9.23822L26.9438 14.0329C27.4274 14.5165 28.2182 14.5255 28.7017 14.051C29.235 13.5268 29.5423 12.8128 29.5694 12.04C29.5784 11.8186 29.6553 11.6333 29.7999 11.4887C30.2879 11.0006 31.3183 11.2085 32.0503 11.9406C32.4299 12.3202 32.6785 12.7811 32.7508 13.2331C32.8141 13.6307 32.7237 13.9742 32.5068 14.1911C32.3622 14.3357 32.1769 14.4125 31.9554 14.4216C31.1827 14.4532 30.4687 14.7605 29.9445 15.2892C29.47 15.7728 29.4745 16.5636 29.9625 17.0471L34.7573 21.8418C34.8386 21.9232 34.8386 22.0587 34.7573 22.1401L32.326 24.5713C32.1407 24.7566 32.1407 25.0594 32.326 25.2447C32.4209 25.3396 32.5384 25.3848 32.6604 25.3848C32.7824 25.3848 32.9044 25.3396 32.9948 25.2447L35.4261 22.8134C35.878 22.3615 35.878 21.6204 35.4261 21.1685L35.4306 21.1775Z" fill="#1E2352" stroke="#1E2352" stroke-width="0.8" stroke-miterlimit="6"/>
<path d="M32.2628 24.6436L29.9626 26.9438C29.8451 27.0613 29.6507 27.0613 29.5332 26.9438C29.1808 26.5913 28.9774 26.1123 28.9593 25.5881C28.9413 25.1272 28.765 24.7159 28.4532 24.4041C27.5855 23.5365 25.9722 23.7398 24.856 24.856C23.7398 25.9722 23.5365 27.5855 24.4041 28.4532C24.7159 28.765 25.1272 28.9412 25.5881 28.9593C26.1123 28.9774 26.5959 29.1853 26.9438 29.5332C27.0613 29.6507 27.0613 29.845 26.9438 29.9625L22.1491 34.7572C22.0678 34.8386 21.9322 34.8386 21.8509 34.7572L17.0562 29.9625C16.8212 29.7276 16.5048 29.5965 16.1704 29.5965C15.836 29.5965 15.5197 29.7276 15.2847 29.9625L15.2124 30.0348C14.7198 30.5274 14.4442 31.2008 14.4306 31.9328C14.4306 32.1678 14.3493 32.3622 14.2001 32.5068C13.7121 32.9948 12.6817 32.7869 11.9496 32.0549C11.2176 31.3228 11.0097 30.2924 11.4977 29.8044C11.6423 29.6598 11.8276 29.5829 12.0491 29.5739C12.8218 29.5423 13.5358 29.235 14.06 28.7062C14.5345 28.2227 14.53 27.4319 14.042 26.9483L9.23822 22.1491C9.15688 22.0678 9.15688 21.9322 9.23822 21.8509L10.2821 20.807C10.4674 20.6217 10.4674 20.3189 10.2821 20.1336C10.0968 19.9483 9.79406 19.9483 9.60878 20.1336L8.56488 21.1775C8.34345 21.399 8.22595 21.6882 8.22595 22C8.22595 22.3118 8.34797 22.601 8.56488 22.8225L13.3596 27.6172C13.4771 27.7347 13.4816 27.9245 13.3686 28.0374C13.0161 28.3944 12.5326 28.6023 11.9994 28.6249C11.5384 28.643 11.1272 28.8192 10.8154 29.131C9.94771 29.9987 10.1511 31.612 11.2673 32.7282C12.3835 33.8444 13.9968 34.0478 14.8644 33.1801C15.1898 32.8547 15.366 32.4299 15.3706 31.9464C15.3796 31.4629 15.5558 31.0245 15.8722 30.7082L15.9445 30.6359C16.0032 30.5771 16.0801 30.5455 16.1614 30.5455C16.2427 30.5455 16.3196 30.5771 16.3783 30.6359L21.173 35.4306C21.399 35.6565 21.6972 35.7695 21.9955 35.7695C22.2937 35.7695 22.592 35.6565 22.8179 35.4306L27.6127 30.6359C28.1007 30.1478 28.1007 29.3525 27.6127 28.8599C27.093 28.3402 26.3835 28.0374 25.6198 28.0058C25.3983 27.9968 25.213 27.9199 25.0684 27.7753C24.5804 27.2873 24.7883 26.2569 25.5203 25.5248C26.2524 24.7928 27.2828 24.5849 27.7708 25.0729C27.9154 25.2175 27.9923 25.4028 28.0013 25.6243C28.0284 26.388 28.3357 27.0975 28.8554 27.6172C29.3434 28.1052 30.1388 28.1052 30.6314 27.6172L32.9316 25.317C33.1168 25.1317 33.1168 24.8289 32.9316 24.6436C32.7463 24.4583 32.4435 24.4583 32.2582 24.6436H32.2628Z" fill="#1E2352" stroke="#1E2352" stroke-width="0.8" stroke-miterlimit="6"/>
</g>
<defs>
<clipPath id="clip0_11_1711">
<rect width="28" height="28" fill="white" transform="translate(8 8)"/>
</clipPath>
</defs>
</svg>
